<svg width="479" height="82" viewBox="0 0 479 82" fill="none" xmlns="http://www.w3.org/2000/svg">
<g filter="url(#filter0_di)">
<path d="M57.2753 58.944H28.8593L23.5793 72H4.18725L33.8513 4.8H52.5713L82.3313 72H62.5553L57.2753 58.944ZM51.7073 44.928L43.0673 23.424L34.4273 44.928H51.7073ZM119.592 19.104C124.328 19.104 128.616 20.192 132.456 22.368C136.36 24.544 139.432 27.68 141.672 31.776C143.976 35.808 145.128 40.512 145.128 45.888C145.128 51.264 143.976 56 141.672 60.096C139.432 64.192 136.36 67.36 132.456 69.6C128.616 71.776 124.328 72.864 119.592 72.864C112.744 72.864 107.624 70.848 104.232 66.816V72H86.856V0.767996H105.096V24.48C108.616 20.896 113.448 19.104 119.592 19.104ZM115.752 58.368C118.952 58.368 121.576 57.28 123.624 55.104C125.672 52.864 126.696 49.792 126.696 45.888C126.696 42.048 125.672 39.04 123.624 36.864C121.576 34.688 118.952 33.6 115.752 33.6C112.552 33.6 109.928 34.688 107.88 36.864C105.832 39.04 104.808 42.048 104.808 45.888C104.808 49.792 105.832 52.864 107.88 55.104C109.928 57.28 112.552 58.368 115.752 58.368ZM179.718 72.864C174.15 72.864 169.126 71.712 164.646 69.408C160.166 67.104 156.646 63.904 154.086 59.808C151.59 55.712 150.342 51.072 150.342 45.888C150.342 40.768 151.59 36.16 154.086 32.064C156.646 27.968 160.134 24.8 164.55 22.56C169.03 20.256 174.086 19.104 179.718 19.104C185.35 19.104 190.406 20.256 194.886 22.56C199.366 24.8 202.854 27.968 205.35 32.064C207.846 36.096 209.094 40.704 209.094 45.888C209.094 51.072 207.846 55.712 205.35 59.808C202.854 63.904 199.366 67.104 194.886 69.408C190.406 71.712 185.35 72.864 179.718 72.864ZM179.718 58.368C182.918 58.368 185.542 57.28 187.59 55.104C189.638 52.864 190.662 49.792 190.662 45.888C190.662 42.048 189.638 39.04 187.59 36.864C185.542 34.688 182.918 33.6 179.718 33.6C176.518 33.6 173.894 34.688 171.846 36.864C169.798 39.04 168.774 42.048 168.774 45.888C168.774 49.792 169.798 52.864 171.846 55.104C173.894 57.28 176.518 58.368 179.718 58.368ZM272.264 19.968V72H254.888V66.432C252.968 68.544 250.664 70.144 247.976 71.232C245.288 72.32 242.44 72.864 239.432 72.864C232.712 72.864 227.336 70.88 223.304 66.912C219.336 62.944 217.352 56.992 217.352 49.056V19.968H235.592V46.08C235.592 49.984 236.328 52.832 237.8 54.624C239.272 56.416 241.416 57.312 244.232 57.312C247.112 57.312 249.448 56.32 251.24 54.336C253.096 52.288 254.024 49.184 254.024 45.024V19.968H272.264ZM319.916 69.888C318.38 70.848 316.492 71.584 314.252 72.096C312.076 72.608 309.74 72.864 307.244 72.864C300.46 72.864 295.244 71.2 291.596 67.872C287.948 64.544 286.124 59.584 286.124 52.992V35.52H278.54V21.888H286.124V8.352H304.364V21.888H316.268V35.52H304.364V52.8C304.364 54.656 304.844 56.128 305.804 57.216C306.828 58.24 308.172 58.752 309.836 58.752C311.948 58.752 313.804 58.208 315.404 57.12L319.916 69.888ZM386.759 73.344C376.775 73.344 368.999 70.624 363.431 65.184C357.927 59.744 355.175 52.032 355.175 42.048V4.8H374.183V41.472C374.183 52.224 378.439 57.6 386.951 57.6C395.399 57.6 399.623 52.224 399.623 41.472V4.8H418.343V42.048C418.343 52.032 415.559 59.744 409.991 65.184C404.487 70.624 396.743 73.344 386.759 73.344ZM449.268 72.864C444.916 72.864 440.628 72.384 436.404 71.424C432.18 70.4 428.788 69.088 426.228 67.488L431.7 55.008C434.068 56.48 436.884 57.664 440.148 58.56C443.412 59.392 446.644 59.808 449.844 59.808C452.788 59.808 454.868 59.52 456.084 58.944C457.364 58.304 458.004 57.408 458.004 56.256C458.004 55.104 457.236 54.304 455.7 53.856C454.228 53.344 451.86 52.864 448.596 52.416C444.436 51.904 440.884 51.232 437.94 50.4C435.06 49.568 432.564 48.032 430.452 45.792C428.34 43.552 427.284 40.416 427.284 36.384C427.284 33.056 428.276 30.112 430.26 27.552C432.244 24.928 435.124 22.88 438.9 21.408C442.74 19.872 447.316 19.104 452.628 19.104C456.404 19.104 460.148 19.488 463.86 20.256C467.572 21.024 470.676 22.112 473.172 23.52L467.7 35.904C463.092 33.344 458.1 32.064 452.724 32.064C449.844 32.064 447.732 32.416 446.388 33.12C445.044 33.76 444.372 34.624 444.372 35.712C444.372 36.928 445.108 37.792 446.58 38.304C448.052 38.752 450.484 39.232 453.876 39.744C458.164 40.384 461.716 41.12 464.532 41.952C467.348 42.784 469.78 44.32 471.828 46.56C473.94 48.736 474.996 51.808 474.996 55.776C474.996 59.04 474.004 61.984 472.02 64.608C470.036 67.168 467.092 69.184 463.188 70.656C459.348 72.128 454.708 72.864 449.268 72.864Z" fill="url(#paint0_linear)"/>
</g>
<defs>
<filter id="filter0_di" x="0.187256" y="0.768066" width="478.809" height="80.576" filterUnits="userSpaceOnUse" color-interpolation-filters="sRGB">
<feFlood flood-opacity="0" result="BackgroundImageFix"/>
<feColorMatrix in="SourceAlpha" type="matrix" values="0 0 0 0 0 0 0 0 0 0 0 0 0 0 0 0 0 0 127 0"/>
<feOffset dy="4"/>
<feGaussianBlur stdDeviation="2"/>
<feColorMatrix type="matrix" values="0 0 0 0 0 0 0 0 0 0 0 0 0 0 0 0 0 0 0.25 0"/>
<feBlend mode="normal" in2="BackgroundImageFix" result="effect1_dropShadow"/>
<feBlend mode="normal" in="SourceGraphic" in2="effect1_dropShadow" result="shape"/>
<feColorMatrix in="SourceAlpha" type="matrix" values="0 0 0 0 0 0 0 0 0 0 0 0 0 0 0 0 0 0 127 0" result="hardAlpha"/>
<feOffset dy="4"/>
<feGaussianBlur stdDeviation="2"/>
<feComposite in2="hardAlpha" operator="arithmetic" k2="-1" k3="1"/>
<feColorMatrix type="matrix" values="0 0 0 0 0 0 0 0 0 0 0 0 0 0 0 0 0 0 0.25 0"/>
<feBlend mode="normal" in2="shape" result="effect2_innerShadow"/>
</filter>
<linearGradient id="paint0_linear" x1="241" y1="-21" x2="241" y2="96" gradientUnits="userSpaceOnUse">
<stop stop-color="white"/>
<stop offset="0.831597" stop-color="#EAC955"/>
<stop offset="1" stop-color="#E7CD71"/>
</linearGradient>
</defs>
</svg>
