<svg width="1760" height="117" viewBox="0 0 1760 117" fill="none" xmlns="http://www.w3.org/2000/svg">
<g filter="url(#filter0_di)">
<path d="M1177.28 79.9445H1148.86L1143.58 93.0005H1124.19L1153.85 25.8005H1172.57L1202.33 93.0005H1182.56L1177.28 79.9445ZM1171.71 65.9285L1163.07 44.4245L1154.43 65.9285H1171.71ZM1239.59 40.1045C1244.33 40.1045 1248.62 41.1925 1252.46 43.3685C1256.36 45.5445 1259.43 48.6805 1261.67 52.7765C1263.98 56.8085 1265.13 61.5125 1265.13 66.8885C1265.13 72.2645 1263.98 77.0005 1261.67 81.0965C1259.43 85.1925 1256.36 88.3605 1252.46 90.6005C1248.62 92.7765 1244.33 93.8645 1239.59 93.8645C1232.74 93.8645 1227.62 91.8485 1224.23 87.8165V93.0005H1206.86V21.7685H1225.1V45.4805C1228.62 41.8965 1233.45 40.1045 1239.59 40.1045ZM1235.75 79.3685C1238.95 79.3685 1241.58 78.2805 1243.62 76.1045C1245.67 73.8645 1246.7 70.7925 1246.7 66.8885C1246.7 63.0485 1245.67 60.0405 1243.62 57.8645C1241.58 55.6885 1238.95 54.6005 1235.75 54.6005C1232.55 54.6005 1229.93 55.6885 1227.88 57.8645C1225.83 60.0405 1224.81 63.0485 1224.81 66.8885C1224.81 70.7925 1225.83 73.8645 1227.88 76.1045C1229.93 78.2805 1232.55 79.3685 1235.75 79.3685ZM1299.72 93.8645C1294.15 93.8645 1289.13 92.7125 1284.65 90.4085C1280.17 88.1045 1276.65 84.9045 1274.09 80.8085C1271.59 76.7125 1270.34 72.0725 1270.34 66.8885C1270.34 61.7685 1271.59 57.1605 1274.09 53.0645C1276.65 48.9685 1280.13 45.8005 1284.55 43.5605C1289.03 41.2565 1294.09 40.1045 1299.72 40.1045C1305.35 40.1045 1310.41 41.2565 1314.89 43.5605C1319.37 45.8005 1322.85 48.9685 1325.35 53.0645C1327.85 57.0965 1329.09 61.7045 1329.09 66.8885C1329.09 72.0725 1327.85 76.7125 1325.35 80.8085C1322.85 84.9045 1319.37 88.1045 1314.89 90.4085C1310.41 92.7125 1305.35 93.8645 1299.72 93.8645ZM1299.72 79.3685C1302.92 79.3685 1305.54 78.2805 1307.59 76.1045C1309.64 73.8645 1310.66 70.7925 1310.66 66.8885C1310.66 63.0485 1309.64 60.0405 1307.59 57.8645C1305.54 55.6885 1302.92 54.6005 1299.72 54.6005C1296.52 54.6005 1293.89 55.6885 1291.85 57.8645C1289.8 60.0405 1288.77 63.0485 1288.77 66.8885C1288.77 70.7925 1289.8 73.8645 1291.85 76.1045C1293.89 78.2805 1296.52 79.3685 1299.72 79.3685ZM1392.26 40.9685V93.0005H1374.89V87.4325C1372.97 89.5445 1370.66 91.1445 1367.98 92.2325C1365.29 93.3205 1362.44 93.8645 1359.43 93.8645C1352.71 93.8645 1347.34 91.8805 1343.3 87.9125C1339.34 83.9445 1337.35 77.9925 1337.35 70.0565V40.9685H1355.59V67.0805C1355.59 70.9845 1356.33 73.8325 1357.8 75.6245C1359.27 77.4165 1361.42 78.3125 1364.23 78.3125C1367.11 78.3125 1369.45 77.3205 1371.24 75.3365C1373.1 73.2885 1374.02 70.1845 1374.02 66.0245V40.9685H1392.26ZM1439.92 90.8885C1438.38 91.8485 1436.49 92.5845 1434.25 93.0965C1432.08 93.6085 1429.74 93.8645 1427.24 93.8645C1420.46 93.8645 1415.24 92.2005 1411.6 88.8725C1407.95 85.5445 1406.12 80.5845 1406.12 73.9925V56.5205H1398.54V42.8885H1406.12V29.3525H1424.36V42.8885H1436.27V56.5205H1424.36V73.8005C1424.36 75.6565 1424.84 77.1285 1425.8 78.2165C1426.83 79.2405 1428.17 79.7525 1429.84 79.7525C1431.95 79.7525 1433.8 79.2085 1435.4 78.1205L1439.92 90.8885ZM1506.76 94.3445C1496.78 94.3445 1489 91.6245 1483.43 86.1845C1477.93 80.7445 1475.18 73.0325 1475.18 63.0485V25.8005H1494.18V62.4725C1494.18 73.2245 1498.44 78.6005 1506.95 78.6005C1515.4 78.6005 1519.62 73.2245 1519.62 62.4725V25.8005H1538.34V63.0485C1538.34 73.0325 1535.56 80.7445 1529.99 86.1845C1524.49 91.6245 1516.74 94.3445 1506.76 94.3445ZM1569.27 93.8645C1564.92 93.8645 1560.63 93.3845 1556.4 92.4245C1552.18 91.4005 1548.79 90.0885 1546.23 88.4885L1551.7 76.0085C1554.07 77.4805 1556.88 78.6645 1560.15 79.5605C1563.41 80.3925 1566.64 80.8085 1569.84 80.8085C1572.79 80.8085 1574.87 80.5205 1576.08 79.9445C1577.36 79.3045 1578 78.4085 1578 77.2565C1578 76.1045 1577.24 75.3045 1575.7 74.8565C1574.23 74.3445 1571.86 73.8645 1568.6 73.4165C1564.44 72.9045 1560.88 72.2325 1557.94 71.4005C1555.06 70.5685 1552.56 69.0325 1550.45 66.7925C1548.34 64.5525 1547.28 61.4165 1547.28 57.3845C1547.28 54.0565 1548.28 51.1125 1550.26 48.5525C1552.24 45.9285 1555.12 43.8805 1558.9 42.4085C1562.74 40.8725 1567.32 40.1045 1572.63 40.1045C1576.4 40.1045 1580.15 40.4885 1583.86 41.2565C1587.57 42.0245 1590.68 43.1125 1593.17 44.5205L1587.7 56.9045C1583.09 54.3445 1578.1 53.0645 1572.72 53.0645C1569.84 53.0645 1567.73 53.4165 1566.39 54.1205C1565.04 54.7605 1564.37 55.6245 1564.37 56.7125C1564.37 57.9285 1565.11 58.7925 1566.58 59.3045C1568.05 59.7525 1570.48 60.2325 1573.88 60.7445C1578.16 61.3845 1581.72 62.1205 1584.53 62.9525C1587.35 63.7845 1589.78 65.3205 1591.83 67.5605C1593.94 69.7365 1595 72.8085 1595 76.7765C1595 80.0405 1594 82.9845 1592.02 85.6085C1590.04 88.1685 1587.09 90.1845 1583.19 91.6565C1579.35 93.1285 1574.71 93.8645 1569.27 93.8645Z" fill="url(#paint0_linear)"/>
</g>
<path d="M1644 59.0005H1757" stroke="#EAC955" stroke-width="6" stroke-linecap="round" stroke-linejoin="round"/>
<path d="M0 59.0005L1078 59.0004" stroke="#EAC955" stroke-width="6" stroke-linecap="round" stroke-linejoin="round"/>
<defs>
<filter id="filter0_di" x="1120.19" y="21.7686" width="478.809" height="80.576" filterUnits="userSpaceOnUse" color-interpolation-filters="sRGB">
<feFlood flood-opacity="0" result="BackgroundImageFix"/>
<feColorMatrix in="SourceAlpha" type="matrix" values="0 0 0 0 0 0 0 0 0 0 0 0 0 0 0 0 0 0 127 0"/>
<feOffset dy="4"/>
<feGaussianBlur stdDeviation="2"/>
<feColorMatrix type="matrix" values="0 0 0 0 0 0 0 0 0 0 0 0 0 0 0 0 0 0 0.25 0"/>
<feBlend mode="normal" in2="BackgroundImageFix" result="effect1_dropShadow"/>
<feBlend mode="normal" in="SourceGraphic" in2="effect1_dropShadow" result="shape"/>
<feColorMatrix in="SourceAlpha" type="matrix" values="0 0 0 0 0 0 0 0 0 0 0 0 0 0 0 0 0 0 127 0" result="hardAlpha"/>
<feOffset dy="4"/>
<feGaussianBlur stdDeviation="2"/>
<feComposite in2="hardAlpha" operator="arithmetic" k2="-1" k3="1"/>
<feColorMatrix type="matrix" values="0 0 0 0 0 0 0 0 0 0 0 0 0 0 0 0 0 0 0.25 0"/>
<feBlend mode="normal" in2="shape" result="effect2_innerShadow"/>
</filter>
<linearGradient id="paint0_linear" x1="1361" y1="0.000488281" x2="1361" y2="117" gradientUnits="userSpaceOnUse">
<stop stop-color="white"/>
<stop offset="0.831597" stop-color="#EAC955"/>
<stop offset="1" stop-color="#E7CD71"/>
</linearGradient>
</defs>
</svg>
