<svg width="19" height="22" viewBox="0 0 19 22" fill="none" xmlns="http://www.w3.org/2000/svg">
<path d="M9.47851 5.25568C6.84148 5.25568 4.71444 7.69463 4.71444 10.7184C4.71444 13.7421 6.84148 16.181 9.47851 16.181C12.1155 16.181 14.2426 13.7421 14.2426 10.7184C14.2426 7.69463 12.1155 5.25568 9.47851 5.25568ZM9.47851 14.2698C7.77439 14.2698 6.38124 12.6771 6.38124 10.7184C6.38124 8.75959 7.77024 7.16691 9.47851 7.16691C11.1868 7.16691 12.5758 8.75959 12.5758 10.7184C12.5758 12.6771 11.1826 14.2698 9.47851 14.2698ZM15.5487 5.03223C15.5487 5.74062 15.0511 6.30638 14.4375 6.30638C13.8197 6.30638 13.3263 5.73586 13.3263 5.03223C13.3263 4.32859 13.8238 3.75808 14.4375 3.75808C15.0511 3.75808 15.5487 4.32859 15.5487 5.03223ZM18.704 6.3254C18.6335 4.61861 18.2935 3.10674 17.203 1.86112C16.1167 0.615494 14.7982 0.225643 13.3097 0.140066C11.7755 0.0402255 7.17733 0.0402255 5.6432 0.140066C4.15884 0.220889 2.84032 0.61074 1.74985 1.85636C0.659379 3.10199 0.323531 4.61385 0.248898 6.32064C0.161826 8.07973 0.161826 13.3522 0.248898 15.1113C0.319384 16.8181 0.659379 18.33 1.74985 19.5756C2.84032 20.8212 4.15469 21.2111 5.6432 21.2967C7.17733 21.3965 11.7755 21.3965 13.3097 21.2967C14.7982 21.2158 16.1167 20.826 17.203 19.5756C18.2893 18.33 18.6293 16.8181 18.704 15.1113C18.791 13.3522 18.791 8.08448 18.704 6.3254ZM16.7221 16.9988C16.3986 17.9306 15.7726 18.6485 14.9557 19.0241C13.7326 19.5804 10.8302 19.452 9.47851 19.452C8.12682 19.452 5.22028 19.5756 4.00128 19.0241C3.18861 18.6533 2.56252 17.9354 2.23496 16.9988C1.74985 15.5963 1.8618 12.2683 1.8618 10.7184C1.8618 9.16846 1.754 5.8357 2.23496 4.43794C2.55837 3.5061 3.18446 2.7882 4.00128 2.41262C5.22443 1.85636 8.12682 1.98473 9.47851 1.98473C10.8302 1.98473 13.7367 1.86112 14.9557 2.41262C15.7684 2.78345 16.3945 3.50135 16.7221 4.43794C17.2072 5.84046 17.0952 9.16846 17.0952 10.7184C17.0952 12.2683 17.2072 15.601 16.7221 16.9988Z" fill="white"/>
</svg>
