<svg width="196" height="37" viewBox="0 0 196 37" fill="none" xmlns="http://www.w3.org/2000/svg">
<path d="M0.8 28.48C0.8 28.24 0.92 28.08 1.16 28C1.4 27.92 1.68 27.8667 2 27.84C2.32 27.7867 2.65333 27.5733 3 27.2C3.37333 26.8 3.65333 26.2267 3.84 25.48C4.13333 24.3333 4.64 20.6667 5.36 14.48C6.08 8.26667 6.44 4.84 6.44 4.2C6.44 3.56 6.17333 3.02666 5.64 2.6C5.13333 2.17333 4.49333 1.93333 3.72 1.88C3.24 1.85333 3 1.62667 3 1.2C3 0.879999 3.24 0.719999 3.72 0.719999L3.92 0.759999C4.05333 0.759999 4.24 0.773332 4.48 0.799998C4.74667 0.826665 5.04 0.853332 5.36 0.88C5.70667 0.906666 6.13333 0.933332 6.64 0.959999C7.17333 0.959999 7.73333 0.959999 8.32 0.959999C8.98667 0.959999 9.66667 0.933332 10.36 0.88C11.08 0.826665 11.52 0.799998 11.68 0.799998C12.1867 0.799998 12.44 0.933331 12.44 1.2C12.44 1.33333 12.3867 1.44 12.28 1.52C12.2 1.57333 12.0267 1.64 11.76 1.72C11.52 1.8 11.3067 1.89333 11.12 2C10.32 2.48 9.81333 3.18667 9.6 4.12C9.38667 5.05333 9.04 7.82667 8.56 12.44C8.53333 12.6267 8.50667 12.8267 8.48 13.04C8.45333 13.2533 8.42667 13.4267 8.4 13.56C8.4 13.6667 8.4 13.76 8.4 13.84C8.4 14.08 8.49333 14.2 8.68 14.2C8.89333 14.2 10.4667 13.12 13.4 10.96C16.3333 8.77333 18.88 6.84 21.04 5.16C22.4533 4.04 23.16 3.24 23.16 2.76C23.16 2.38667 22.84 2.10667 22.2 1.92C21.56 1.73333 21.24 1.50667 21.24 1.24C21.24 0.919999 21.6 0.759999 22.32 0.759999C22.3733 0.759999 22.8933 0.799999 23.88 0.88C24.8933 0.959999 25.6 0.999998 26 0.999998C26.5333 0.999998 27.1733 0.959999 27.92 0.88C28.6933 0.799999 29.16 0.759999 29.32 0.759999C29.88 0.759999 30.16 0.973332 30.16 1.4C30.16 1.82667 29.9867 2.08 29.64 2.16C29.5067 2.21333 29.2533 2.26667 28.88 2.32C28.5333 2.37333 28.1867 2.45333 27.84 2.56C27.52 2.66667 26.92 2.98667 26.04 3.52C25.16 4.02667 24.0933 4.73333 22.84 5.64L14.2 11.84C14.0667 11.9467 13.8667 12.08 13.6 12.24C13.36 12.4 13.16 12.5467 13 12.68C12.84 12.7867 12.6667 12.9067 12.48 13.04C12.32 13.1733 12.1867 13.3067 12.08 13.44C12 13.5467 11.96 13.6533 11.96 13.76C11.96 13.8667 12.08 14.04 12.32 14.28C13.8667 15.96 15.5067 17.8 17.24 19.8C18.9733 21.8 20.1467 23.16 20.76 23.88C21.4 24.5733 22.16 25.32 23.04 26.12C23.92 26.8933 24.6667 27.3867 25.28 27.6C25.8933 27.7867 26.6667 27.9067 27.6 27.96C28.2133 28.0133 28.52 28.2 28.52 28.52C28.52 28.8933 28.2933 29.08 27.84 29.08C27.7333 29.08 27.16 29.0533 26.12 29C25.08 28.9467 24.3333 28.92 23.88 28.92C23.3467 28.92 22.9067 28.92 22.56 28.92C22.24 28.92 22 28.9333 21.84 28.96C21.7067 28.96 21.6267 28.96 21.6 28.96C21.3333 28.96 21 28.7467 20.6 28.32C20.2 27.8667 19.0267 26.48 17.08 24.16C15.4533 22.2133 14.0667 20.56 12.92 19.2C10.9467 16.88 9.88 15.6667 9.72 15.56C9.61333 15.5067 9.48 15.48 9.32 15.48C9.05333 15.48 8.8 15.6 8.56 15.84L8.48 15.92C8.4 15.9733 8.34667 16.0133 8.32 16.04C8.32 16.0667 8.29333 16.1067 8.24 16.16C8.18667 16.2133 8.14667 16.2667 8.12 16.32C8.09333 16.3733 8.05333 16.4533 8 16.56C7.97333 16.6667 7.94667 16.7733 7.92 16.88C7.89333 16.9867 7.86667 17.1333 7.84 17.32C7.81333 17.48 7.78667 17.6667 7.76 17.88C7.73333 18.0667 7.70667 18.2933 7.68 18.56C7.25333 22.4 7.04 24.3733 7.04 24.48C7.04 25.92 7.17333 26.8133 7.44 27.16C7.73333 27.48 8.44 27.72 9.56 27.88C10.3867 27.96 10.8 28.16 10.8 28.48C10.8 28.8267 10.4933 29 9.88 29C9.08 29 8.41333 28.9867 7.88 28.96C7.34667 28.9067 6.89333 28.88 6.52 28.88C5.72 28.88 4.78667 28.92 3.72 29C2.68 29.0533 2.09333 29.08 1.96 29.08C1.18667 29.08 0.8 28.88 0.8 28.48ZM33.5947 5.28C33.5947 5.06667 33.848 4.66667 34.3547 4.08C34.8614 3.46667 35.2747 3.16 35.5947 3.16C35.968 3.16 36.3147 3.41333 36.6347 3.92C36.9814 4.42667 37.1547 4.88 37.1547 5.28C37.1547 5.65333 36.9147 6.10666 36.4347 6.64C35.9547 7.14667 35.608 7.4 35.3947 7.4C35.0747 7.4 34.688 7.10667 34.2347 6.52C33.808 5.93333 33.5947 5.52 33.5947 5.28ZM29.3547 13.16C29.3547 12.7867 29.6614 12.6 30.2747 12.6H30.6747C31.1547 12.6 31.8214 12.5467 32.6747 12.44C33.5547 12.3067 34.408 12.24 35.2347 12.24C35.608 12.24 35.7947 12.3867 35.7947 12.68C35.7947 13.0267 35.6347 13.72 35.3147 14.76C35.0214 15.8 34.8214 16.6533 34.7147 17.32C33.9147 22.36 33.5147 25.0133 33.5147 25.28C33.5147 25.5467 33.5947 25.8 33.7547 26.04C33.9147 26.2533 34.1014 26.36 34.3147 26.36C34.848 26.36 35.3547 26.0133 35.8347 25.32C36.3414 24.6267 36.6614 24.28 36.7947 24.28C37.0614 24.28 37.1947 24.4267 37.1947 24.72C37.1947 24.96 37.0614 25.3467 36.7947 25.88C36.528 26.4133 36.2747 26.8 36.0347 27.04C34.568 28.6133 33.3414 29.4 32.3547 29.4C31.368 29.4 30.8747 28.2933 30.8747 26.08C30.8747 25.0133 31.168 23 31.7547 20.04C32.368 17.0533 32.6747 15.2133 32.6747 14.52C32.6747 14.2 32.608 13.9867 32.4747 13.88C32.3414 13.7467 32.088 13.68 31.7147 13.68C31.3947 13.68 31.0214 13.68 30.5947 13.68C30.1947 13.6533 29.968 13.64 29.9147 13.64C29.5414 13.64 29.3547 13.48 29.3547 13.16ZM39.5147 16.12C39.5147 15.4533 39.968 14.5467 40.8747 13.4C41.808 12.2533 42.6347 11.68 43.3547 11.68C43.888 11.68 44.3014 11.8933 44.5947 12.32C44.888 12.7467 45.0614 13.2267 45.1147 13.76C45.168 14.2667 45.2214 14.7333 45.2747 15.16C45.328 15.5867 45.408 15.8 45.5147 15.8C45.568 15.8 45.648 15.72 45.7547 15.56C45.888 15.4 46.0747 15.1867 46.3147 14.92C46.5547 14.6267 46.8347 14.3333 47.1547 14.04C47.5014 13.72 47.9547 13.3867 48.5147 13.04C49.1014 12.6933 49.7414 12.4 50.4347 12.16C51.2614 11.8667 52.0347 11.72 52.7547 11.72C54.328 11.72 55.1147 12.7067 55.1147 14.68V15.52C55.1147 15.7333 55.1414 15.84 55.1947 15.84C55.2747 15.84 55.368 15.7733 55.4747 15.64C55.5814 15.48 55.7414 15.2533 55.9547 14.96C56.168 14.6667 56.408 14.4 56.6747 14.16C58.3814 12.5067 60.0347 11.68 61.6347 11.68C62.3547 11.68 62.9547 11.8667 63.4347 12.24C63.9414 12.6133 64.288 13.08 64.4747 13.64C64.6614 14.2 64.7814 14.6533 64.8347 15C64.888 15.3467 64.9147 15.6533 64.9147 15.92C64.9147 16.56 64.7814 18.16 64.5147 20.72C64.248 23.2533 64.1147 24.72 64.1147 25.12C64.1147 26.0533 64.3814 26.52 64.9147 26.52C65.128 26.52 65.368 26.44 65.6347 26.28C65.928 26.12 66.168 25.96 66.3547 25.8L66.6347 25.6C66.7147 25.4933 66.808 25.36 66.9147 25.2C67.048 25.0133 67.1414 24.88 67.1947 24.8C67.248 24.72 67.328 24.6533 67.4347 24.6C67.568 24.52 67.7014 24.48 67.8347 24.48C68.1014 24.48 68.2347 24.64 68.2347 24.96C68.2347 25.7333 67.5814 26.6267 66.2747 27.64C64.968 28.6267 63.8614 29.12 62.9547 29.12C62.5547 29.12 62.208 28.88 61.9147 28.4C61.6214 27.8933 61.4747 27.2933 61.4747 26.6C61.4747 26.4933 61.6214 25.0533 61.9147 22.28C62.208 19.5067 62.3547 17.64 62.3547 16.68C62.3547 15.72 62.1147 14.9733 61.6347 14.44C61.1814 13.88 60.7014 13.6 60.1947 13.6C59.3947 13.6 58.6214 13.9867 57.8747 14.76C57.128 15.5067 56.5814 16.2 56.2347 16.84C55.9147 17.4533 55.728 17.8933 55.6747 18.16C55.488 18.8 55.328 19.6533 55.1947 20.72C55.0614 21.7867 54.9014 23.2667 54.7147 25.16C54.5547 27.0267 54.4747 28.0267 54.4747 28.16C54.4214 28.88 53.8747 29.24 52.8347 29.24C52.088 29.24 51.7147 28.8133 51.7147 27.96C51.7147 27.8533 51.9547 26.2933 52.4347 23.28C52.9147 20.24 53.1547 17.9733 53.1547 16.48C53.1547 16.2933 53.1147 16.08 53.0347 15.84C52.9814 15.5733 52.8747 15.2667 52.7147 14.92C52.5547 14.5467 52.2614 14.24 51.8347 14C51.4347 13.76 50.928 13.64 50.3147 13.64C50.0214 13.64 49.688 13.72 49.3147 13.88C48.968 14.04 48.5547 14.3333 48.0747 14.76C47.5947 15.16 47.128 15.84 46.6747 16.8C46.248 17.76 45.9014 18.92 45.6347 20.28C45.3947 21.48 45.168 23.0533 44.9547 25C44.768 26.9467 44.648 28.0533 44.5947 28.32C44.568 28.56 44.3947 28.7733 44.0747 28.96C43.7814 29.12 43.448 29.2 43.0747 29.2C42.1414 29.2 41.6747 28.7467 41.6747 27.84C41.6747 27.3867 41.968 25.7067 42.5547 22.8C43.168 19.8933 43.4747 17.8667 43.4747 16.72C43.4747 16.0267 43.368 15.5333 43.1547 15.24C42.9414 14.92 42.7014 14.76 42.4347 14.76C41.9814 14.76 41.528 15.1467 41.0747 15.92C40.6214 16.6933 40.2614 17.08 39.9947 17.08C39.6747 17.08 39.5147 16.76 39.5147 16.12ZM78.3391 23.64C78.3391 23.0267 78.5524 22.72 78.9791 22.72C79.1657 22.72 79.3124 22.8667 79.4191 23.16C79.8457 24.5467 80.6457 25.72 81.8191 26.68C83.0191 27.64 84.5791 28.12 86.4991 28.12C87.6191 28.12 88.5791 27.96 89.3791 27.64C90.2057 27.32 90.8057 26.9067 91.1791 26.4C91.5524 25.8933 91.8057 25.4267 91.9391 25C92.0991 24.5467 92.1791 24.1067 92.1791 23.68C92.1791 22.7733 91.9524 21.9333 91.4991 21.16C91.0457 20.3867 90.3257 19.5067 89.3391 18.52L84.6591 13.88C82.1257 11.2933 80.8591 8.93333 80.8591 6.8C80.8591 5.76 81.0057 4.86667 81.2991 4.12C81.5924 3.37333 81.8991 2.84 82.2191 2.52C82.5391 2.17333 82.9657 1.82667 83.4991 1.48C84.5657 0.733332 85.9257 0.359999 87.5791 0.359999C88.5124 0.359999 89.6857 0.599999 91.0991 1.08C92.5391 1.53333 93.3124 1.76 93.4191 1.76C93.4457 1.76 93.6191 1.65333 93.9391 1.44C94.2857 1.22667 94.5257 1.12 94.6591 1.12C95.0057 1.12 95.1791 1.4 95.1791 1.96C95.1791 2.09333 95.1657 2.32 95.1391 2.64C95.1391 2.93333 95.1391 3.17333 95.1391 3.36V4.04C95.1391 4.44 95.2191 5.08 95.3791 5.96C95.5391 6.84 95.6191 7.34666 95.6191 7.48C95.6191 7.72 95.5391 7.92 95.3791 8.08C95.2457 8.21333 95.1124 8.28 94.9791 8.28C94.7391 8.28 94.5524 8.16 94.4191 7.92C94.2857 7.65333 94.1791 7.33333 94.0991 6.96C94.0191 6.56 93.7924 6.05333 93.4191 5.44C93.0724 4.82666 92.6057 4.22667 92.0191 3.64C90.7124 2.36 89.1257 1.72 87.2591 1.72C86.5124 1.72 85.8724 1.84 85.3391 2.08C84.8057 2.32 84.4191 2.65333 84.1791 3.08C83.9657 3.48 83.8057 3.85333 83.6991 4.2C83.6191 4.54667 83.5791 4.90666 83.5791 5.28C83.5791 6.21333 83.8324 7.14667 84.3391 8.08C84.8724 8.98667 85.4324 9.74667 86.0191 10.36C86.6057 10.9733 87.4857 11.8267 88.6591 12.92C89.8324 14.0133 90.7257 14.88 91.3391 15.52C92.2191 16.4267 92.8591 17.1467 93.2591 17.68C93.6857 18.1867 94.0724 18.8933 94.4191 19.8C94.7924 20.68 94.9791 21.64 94.9791 22.68C94.9791 23.3467 94.8324 24.04 94.5391 24.76C94.2724 25.48 93.8057 26.2267 93.1391 27C92.4991 27.7467 91.5257 28.36 90.2191 28.84C88.9124 29.32 87.3657 29.56 85.5791 29.56C82.7524 29.56 80.8324 29.2667 79.8191 28.68C79.4457 28.4667 79.0991 27.76 78.7791 26.56C78.4857 25.36 78.3391 24.3867 78.3391 23.64ZM101.642 5.28C101.642 5.06667 101.895 4.66667 102.402 4.08C102.908 3.46667 103.322 3.16 103.642 3.16C104.015 3.16 104.362 3.41333 104.682 3.92C105.028 4.42667 105.202 4.88 105.202 5.28C105.202 5.65333 104.962 6.10666 104.482 6.64C104.002 7.14667 103.655 7.4 103.442 7.4C103.122 7.4 102.735 7.10667 102.282 6.52C101.855 5.93333 101.642 5.52 101.642 5.28ZM97.4016 13.16C97.4016 12.7867 97.7082 12.6 98.3216 12.6H98.7216C99.2016 12.6 99.8682 12.5467 100.722 12.44C101.602 12.3067 102.455 12.24 103.282 12.24C103.655 12.24 103.842 12.3867 103.842 12.68C103.842 13.0267 103.682 13.72 103.362 14.76C103.068 15.8 102.868 16.6533 102.762 17.32C101.962 22.36 101.562 25.0133 101.562 25.28C101.562 25.5467 101.642 25.8 101.802 26.04C101.962 26.2533 102.148 26.36 102.362 26.36C102.895 26.36 103.402 26.0133 103.882 25.32C104.388 24.6267 104.708 24.28 104.842 24.28C105.108 24.28 105.242 24.4267 105.242 24.72C105.242 24.96 105.108 25.3467 104.842 25.88C104.575 26.4133 104.322 26.8 104.082 27.04C102.615 28.6133 101.388 29.4 100.402 29.4C99.4149 29.4 98.9216 28.2933 98.9216 26.08C98.9216 25.0133 99.2149 23 99.8016 20.04C100.415 17.0533 100.722 15.2133 100.722 14.52C100.722 14.2 100.655 13.9867 100.522 13.88C100.388 13.7467 100.135 13.68 99.7616 13.68C99.4416 13.68 99.0682 13.68 98.6416 13.68C98.2416 13.6533 98.0149 13.64 97.9616 13.64C97.5882 13.64 97.4016 13.48 97.4016 13.16ZM107.882 22.24C107.882 19.52 108.735 17.0667 110.442 14.88C112.175 12.6933 114.468 11.6 117.322 11.6C119.215 11.6 120.655 12.28 121.642 13.64C122.655 14.9733 123.162 16.6533 123.162 18.68C123.162 20.4133 122.815 22.08 122.122 23.68C121.455 25.28 120.402 26.64 118.962 27.76C117.522 28.8533 115.868 29.4 114.002 29.4C112.242 29.4 110.775 28.7867 109.602 27.56C108.455 26.3333 107.882 24.56 107.882 22.24ZM110.962 22.28C110.962 24.2 111.282 25.6667 111.922 26.68C112.588 27.6933 113.428 28.2 114.442 28.2C115.455 28.2 116.348 27.84 117.122 27.12C117.922 26.4 118.522 25.5067 118.922 24.44C119.348 23.3467 119.668 22.2667 119.882 21.2C120.095 20.1067 120.202 19.1067 120.202 18.2C120.202 16.4133 119.868 15.0667 119.202 14.16C118.562 13.2533 117.748 12.8 116.762 12.8C115.748 12.8 114.775 13.2533 113.842 14.16C112.908 15.04 112.215 16.2533 111.762 17.8C111.228 19.6667 110.962 21.16 110.962 22.28ZM125.218 16.16C125.218 15.36 125.684 14.4 126.618 13.28C127.551 12.16 128.391 11.6 129.138 11.6C129.831 11.6 130.298 11.96 130.538 12.68C130.778 13.3733 130.898 14.0667 130.898 14.76C130.898 15.4533 130.924 15.8 130.978 15.8C131.031 15.8 131.111 15.72 131.218 15.56C131.351 15.4 131.564 15.1467 131.858 14.8C132.178 14.4533 132.551 14.12 132.978 13.8C134.924 12.28 136.551 11.52 137.858 11.52C140.098 11.52 141.218 13.1867 141.218 16.52C141.218 17.5867 141.098 19.1733 140.858 21.28C140.644 23.3867 140.538 24.6 140.538 24.92C140.538 25.88 140.791 26.36 141.298 26.36C141.511 26.36 141.751 26.2933 142.018 26.16C142.284 26 142.498 25.8533 142.658 25.72L142.898 25.48C142.978 25.4 143.071 25.2667 143.178 25.08C143.311 24.8933 143.404 24.7733 143.458 24.72C143.538 24.64 143.631 24.5733 143.738 24.52C143.871 24.44 144.004 24.4 144.138 24.4C144.378 24.4 144.498 24.56 144.498 24.88C144.498 25.6533 143.831 26.5733 142.498 27.64C141.191 28.7067 140.098 29.24 139.218 29.24C138.818 29.24 138.471 29 138.178 28.52C137.884 28.0133 137.738 27.4133 137.738 26.72C137.738 25.5733 137.871 23.7333 138.138 21.2C138.431 18.6667 138.578 17.2133 138.578 16.84C138.578 16.4667 138.538 16.08 138.458 15.68C138.378 15.2533 138.098 14.8 137.618 14.32C137.164 13.8133 136.551 13.56 135.778 13.56C134.871 13.56 134.004 14.1467 133.178 15.32C132.804 15.8533 132.538 16.24 132.378 16.48C132.218 16.72 132.071 17.0533 131.938 17.48C131.804 17.88 131.711 18.2 131.658 18.44C131.631 18.68 131.538 19.24 131.378 20.12C131.244 20.9733 131.111 21.7867 130.978 22.56C130.738 23.8133 130.551 24.84 130.418 25.64C130.311 26.4133 130.244 26.92 130.218 27.16C130.218 27.3733 130.204 27.56 130.178 27.72C130.178 27.8533 130.178 27.96 130.178 28.04C130.124 28.4667 129.991 28.7467 129.778 28.88C129.591 29.0133 129.231 29.08 128.698 29.08C128.111 29.08 127.724 29.0133 127.538 28.88C127.378 28.7467 127.298 28.4 127.298 27.84C127.298 27.3867 127.591 25.7333 128.178 22.88C128.764 20.0267 129.058 18.0267 129.058 16.88C129.058 16.24 128.951 15.72 128.738 15.32C128.551 14.8933 128.351 14.68 128.138 14.68C127.684 14.68 127.204 15.0533 126.698 15.8C126.218 16.5467 125.844 16.92 125.578 16.92C125.338 16.92 125.218 16.6667 125.218 16.16ZM144.352 31.92C144.352 31.2533 144.486 30.6667 144.752 30.16C145.019 29.6533 145.339 29.2667 145.713 29C146.086 28.7333 146.459 28.5333 146.833 28.4C147.206 28.24 147.526 28.12 147.793 28.04C148.059 27.96 148.193 27.9067 148.193 27.88C148.193 27.8267 148.153 27.7467 148.073 27.64C147.993 27.5067 147.913 27.32 147.833 27.08C147.753 26.8133 147.713 26.4933 147.713 26.12C147.713 25.56 147.846 25.08 148.113 24.68C148.379 24.28 148.633 23.9867 148.873 23.8C149.139 23.5867 149.273 23.44 149.273 23.36C149.273 23.3333 149.126 23.2 148.833 22.96C148.566 22.6933 148.286 22.1733 147.993 21.4C147.699 20.6267 147.553 19.6 147.553 18.32C147.553 16.9067 148.099 15.4933 149.193 14.08C150.313 12.64 151.753 11.92 153.513 11.92C154.126 11.92 154.926 12.0933 155.913 12.44C156.899 12.7867 157.566 12.96 157.913 12.96C158.313 12.96 158.846 12.8133 159.513 12.52C160.179 12.2267 160.606 12.08 160.793 12.08C161.059 12.08 161.313 12.16 161.553 12.32C161.819 12.48 161.953 12.7467 161.953 13.12C161.953 13.3867 161.819 13.6667 161.553 13.96C161.286 14.2267 160.926 14.36 160.473 14.36C160.073 14.36 159.633 14.3067 159.153 14.2C158.673 14.0933 158.406 14.04 158.353 14.04C158.033 14.04 157.873 14.16 157.873 14.4C157.873 14.4533 157.926 14.6267 158.033 14.92C158.166 15.1867 158.286 15.56 158.393 16.04C158.526 16.52 158.593 17.0133 158.593 17.52C158.593 19.0133 158.046 20.5333 156.953 22.08C155.886 23.6267 154.526 24.4 152.873 24.4C152.153 24.4 151.486 24.32 150.873 24.16C150.259 23.9733 149.899 23.88 149.793 23.88C149.766 23.88 149.713 23.92 149.633 24C149.579 24.0533 149.513 24.2 149.433 24.44C149.353 24.6533 149.313 24.92 149.313 25.24C149.313 25.9867 149.846 26.6133 150.913 27.12C151.979 27.6267 153.139 28.0267 154.393 28.32C155.673 28.5867 156.846 29.0667 157.913 29.76C158.979 30.48 159.513 31.3867 159.513 32.48C159.513 34.08 158.899 35.2 157.673 35.84C156.473 36.48 154.766 36.8 152.553 36.8C150.259 36.8 148.313 36.3867 146.713 35.56C145.139 34.76 144.352 33.5467 144.352 31.92ZM146.553 31.44C146.553 32.8533 147.153 33.9333 148.353 34.68C149.579 35.4267 150.953 35.8 152.473 35.8C155.459 35.8 156.953 34.9333 156.953 33.2C156.953 32.7467 156.473 32.24 155.513 31.68C154.579 31.1467 152.713 30.3067 149.913 29.16C149.619 29.0533 149.353 28.9467 149.113 28.84C148.899 28.7067 148.753 28.6 148.673 28.52L148.593 28.44C148.246 28.44 147.819 28.76 147.313 29.4C146.806 30.04 146.553 30.72 146.553 31.44ZM149.953 19C149.953 20.4667 150.206 21.5867 150.713 22.36C151.246 23.1067 151.899 23.48 152.673 23.48C153.606 23.48 154.433 22.96 155.153 21.92C155.899 20.8533 156.273 19.4533 156.273 17.72C156.273 16.2 155.993 15.0267 155.433 14.2C154.899 13.3733 154.233 12.96 153.433 12.96C152.526 12.96 151.713 13.5067 150.993 14.6C150.299 15.6667 149.953 17.1333 149.953 19ZM162.608 23.04C162.608 20.1867 163.608 17.56 165.608 15.16C167.635 12.76 170.021 11.56 172.768 11.56C173.035 11.56 173.448 11.64 174.008 11.8C174.568 11.9333 175.168 12.24 175.808 12.72C176.448 13.1733 176.768 13.7467 176.768 14.44C176.768 14.84 176.635 15.2 176.368 15.52C176.101 15.84 175.795 16 175.448 16C175.075 16 174.701 15.8533 174.328 15.56C173.981 15.24 173.675 14.9067 173.408 14.56C173.141 14.2133 172.755 13.8933 172.248 13.6C171.768 13.28 171.208 13.12 170.568 13.12C170.355 13.12 169.981 13.2533 169.448 13.52C168.941 13.76 168.448 14.0933 167.968 14.52C167.701 14.76 167.395 15.12 167.048 15.6C166.701 16.0533 166.328 16.8 165.928 17.84C165.528 18.88 165.328 19.9467 165.328 21.04C165.328 25.12 166.901 27.16 170.048 27.16C171.008 27.16 171.875 26.9867 172.648 26.64C173.448 26.2667 174.061 25.9067 174.488 25.56C174.941 25.1867 175.248 25 175.408 25C175.755 25 175.928 25.1733 175.928 25.52C175.928 25.76 175.648 26.1867 175.088 26.8C174.528 27.3867 173.648 27.9867 172.448 28.6C171.248 29.1867 169.981 29.48 168.648 29.48C164.621 29.48 162.608 27.3333 162.608 23.04ZM178.936 22.24C178.936 19.52 179.79 17.0667 181.496 14.88C183.23 12.6933 185.523 11.6 188.376 11.6C190.27 11.6 191.71 12.28 192.696 13.64C193.71 14.9733 194.216 16.6533 194.216 18.68C194.216 20.4133 193.87 22.08 193.176 23.68C192.51 25.28 191.456 26.64 190.016 27.76C188.576 28.8533 186.923 29.4 185.056 29.4C183.296 29.4 181.83 28.7867 180.656 27.56C179.51 26.3333 178.936 24.56 178.936 22.24ZM182.016 22.28C182.016 24.2 182.336 25.6667 182.976 26.68C183.643 27.6933 184.483 28.2 185.496 28.2C186.51 28.2 187.403 27.84 188.176 27.12C188.976 26.4 189.576 25.5067 189.976 24.44C190.403 23.3467 190.723 22.2667 190.936 21.2C191.15 20.1067 191.256 19.1067 191.256 18.2C191.256 16.4133 190.923 15.0667 190.256 14.16C189.616 13.2533 188.803 12.8 187.816 12.8C186.803 12.8 185.83 13.2533 184.896 14.16C183.963 15.04 183.27 16.2533 182.816 17.8C182.283 19.6667 182.016 21.16 182.016 22.28Z" fill="url(#paint0_linear)"/>
<path d="M0 34.88H195.496V36.84H0V34.88Z" fill="url(#paint1_linear)"/>
<defs>
<linearGradient id="paint0_linear" x1="98" y1="-11" x2="98" y2="50" gradientUnits="userSpaceOnUse">
<stop stop-color="white"/>
<stop offset="0.461172" stop-color="#EAC955"/>
</linearGradient>
<linearGradient id="paint1_linear" x1="98" y1="-11" x2="98" y2="50" gradientUnits="userSpaceOnUse">
<stop stop-color="white"/>
<stop offset="0.461172" stop-color="#EAC955"/>
</linearGradient>
</defs>
</svg>
