<svg width="310" height="99" viewBox="0 0 310 99" fill="none" xmlns="http://www.w3.org/2000/svg">
<path d="M1.79609 24.64C1.79609 24.0267 2.00943 23.72 2.43609 23.72C2.62276 23.72 2.76943 23.8667 2.87609 24.16C3.30276 25.5467 4.10276 26.72 5.27609 27.68C6.47609 28.64 8.03609 29.12 9.95609 29.12C11.0761 29.12 12.0361 28.96 12.8361 28.64C13.6628 28.32 14.2628 27.9067 14.6361 27.4C15.0094 26.8933 15.2628 26.4267 15.3961 26C15.5561 25.5467 15.6361 25.1067 15.6361 24.68C15.6361 23.7733 15.4094 22.9333 14.9561 22.16C14.5028 21.3867 13.7828 20.5067 12.7961 19.52L8.11609 14.88C5.58276 12.2933 4.31609 9.93333 4.31609 7.8C4.31609 6.76 4.46276 5.86667 4.75609 5.12C5.04943 4.37333 5.35609 3.84 5.67609 3.52C5.99609 3.17333 6.42276 2.82667 6.95609 2.48C8.02276 1.73333 9.38276 1.36 11.0361 1.36C11.9694 1.36 13.1428 1.6 14.5561 2.08C15.9961 2.53333 16.7694 2.76 16.8761 2.76C16.9028 2.76 17.0761 2.65333 17.3961 2.44C17.7428 2.22667 17.9828 2.12 18.1161 2.12C18.4628 2.12 18.6361 2.4 18.6361 2.96C18.6361 3.09333 18.6228 3.32 18.5961 3.64C18.5961 3.93333 18.5961 4.17333 18.5961 4.36V5.04C18.5961 5.44 18.6761 6.08 18.8361 6.96C18.9961 7.84 19.0761 8.34666 19.0761 8.48C19.0761 8.72 18.9961 8.92 18.8361 9.08C18.7028 9.21333 18.5694 9.28 18.4361 9.28C18.1961 9.28 18.0094 9.16 17.8761 8.92C17.7428 8.65333 17.6361 8.33333 17.5561 7.96C17.4761 7.56 17.2494 7.05333 16.8761 6.44C16.5294 5.82666 16.0628 5.22667 15.4761 4.64C14.1694 3.36 12.5828 2.72 10.7161 2.72C9.96943 2.72 9.32943 2.84 8.79609 3.08C8.26276 3.32 7.87609 3.65333 7.63609 4.08C7.42276 4.48 7.26276 4.85333 7.15609 5.2C7.07609 5.54667 7.03609 5.90666 7.03609 6.28C7.03609 7.21333 7.28943 8.14667 7.79609 9.08C8.32943 9.98667 8.88943 10.7467 9.47609 11.36C10.0628 11.9733 10.9428 12.8267 12.1161 13.92C13.2894 15.0133 14.1828 15.88 14.7961 16.52C15.6761 17.4267 16.3161 18.1467 16.7161 18.68C17.1428 19.1867 17.5294 19.8933 17.8761 20.8C18.2494 21.68 18.4361 22.64 18.4361 23.68C18.4361 24.3467 18.2894 25.04 17.9961 25.76C17.7294 26.48 17.2628 27.2267 16.5961 28C15.9561 28.7467 14.9828 29.36 13.6761 29.84C12.3694 30.32 10.8228 30.56 9.03609 30.56C6.20943 30.56 4.28943 30.2667 3.27609 29.68C2.90276 29.4667 2.55609 28.76 2.23609 27.56C1.94276 26.36 1.79609 25.3867 1.79609 24.64ZM21.5339 25.44C21.5339 23.4933 22.2806 21.32 23.7739 18.92C25.3739 16.4133 27.1739 14.68 29.1739 13.72C30.1606 13.24 31.1339 13 32.0939 13C32.4939 13 33.0406 13.08 33.7339 13.24C34.4539 13.3733 35.0406 13.44 35.4939 13.44C35.7606 13.44 36.1072 13.12 36.5339 12.48C36.9606 11.8133 37.3072 11.48 37.5739 11.48C37.8672 11.48 38.0139 11.68 38.0139 12.08C38.0139 12.32 37.8939 12.76 37.6539 13.4C37.4406 14.04 37.2939 14.52 37.2139 14.84C37.1872 14.9467 36.8806 16.6533 36.2939 19.96C35.8139 22.6 35.5739 24.3067 35.5739 25.08C35.5739 25.64 35.7072 26.1733 35.9739 26.68C36.2406 27.1867 36.5606 27.44 36.9339 27.44C37.4139 27.44 37.9606 27.0133 38.5739 26.16C39.2139 25.28 39.6406 24.84 39.8539 24.84C40.0939 24.84 40.2139 24.9867 40.2139 25.28C40.2139 25.76 39.9739 26.3333 39.4939 27C38.9339 27.8267 38.2672 28.5867 37.4939 29.28C36.7472 29.9467 36.1206 30.28 35.6139 30.28C34.8672 30.28 34.3072 29.9067 33.9339 29.16C33.5606 28.4133 33.3339 27.6667 33.2539 26.92C33.2006 26.1733 33.1606 25.8 33.1339 25.8C33.1072 25.8 32.9472 25.9733 32.6539 26.32C32.3872 26.64 32.0139 27.04 31.5339 27.52C31.0806 27.9733 30.5606 28.44 29.9739 28.92C29.4139 29.3733 28.7606 29.76 28.0139 30.08C27.2672 30.4267 26.5339 30.6 25.8139 30.6C24.1072 30.6 22.9606 30.1467 22.3739 29.24C21.8139 28.3067 21.5339 27.04 21.5339 25.44ZM24.3339 25.2C24.3339 26.16 24.6272 26.9333 25.2139 27.52C25.8272 28.1067 26.5739 28.4 27.4539 28.4C28.6806 28.4 29.7472 27.9867 30.6539 27.16C31.5872 26.3067 32.2272 25.52 32.5739 24.8C32.8672 24.24 33.1739 23.1733 33.4939 21.6C33.8406 20.0267 34.1072 18.6267 34.2939 17.4C34.5072 16.1733 34.6139 15.5067 34.6139 15.4C34.6139 14.92 34.3206 14.5733 33.7339 14.36C33.1472 14.12 32.5606 14 31.9739 14C31.1206 14 30.2272 14.2933 29.2939 14.88C28.3606 15.4667 27.6006 16.2533 27.0139 17.24C25.6272 19.5333 24.8006 21.4667 24.5339 23.04C24.4006 23.84 24.3339 24.56 24.3339 25.2ZM42.797 26.56C42.797 25.8933 42.877 24.9867 43.037 23.84C43.2237 22.6933 43.4104 21.6 43.597 20.56C43.8104 19.52 43.917 18.9733 43.917 18.92C44.0237 18.1733 44.1704 16.8933 44.357 15.08C44.5704 13.2667 44.7437 11.9067 44.877 11C45.7304 5.58667 46.157 2.78666 46.157 2.6C46.157 2.06666 45.8237 1.8 45.157 1.8C44.9437 1.8 44.7304 1.81333 44.517 1.84C44.3304 1.84 44.157 1.84 43.997 1.84C43.2237 1.84 42.837 1.65333 42.837 1.28C42.837 0.933332 43.037 0.746666 43.437 0.719998C44.5037 0.639999 45.5037 0.519999 46.437 0.359998C47.3704 0.199998 47.9837 0.119998 48.277 0.119998C48.837 0.119998 49.117 0.333332 49.117 0.76C49.117 0.973332 49.0504 1.28 48.917 1.68C48.8104 2.08 48.7437 2.38667 48.717 2.6C48.2904 4.86667 47.997 6.58667 47.837 7.76C47.677 8.90667 47.517 10.2533 47.357 11.8C47.2237 13.32 46.9837 15.2133 46.637 17.48C45.8637 22.84 45.477 25.7067 45.477 26.08C45.477 26.7467 45.517 27.1733 45.597 27.36C45.677 27.5467 45.8504 27.64 46.117 27.64C46.6237 27.64 47.077 27.4933 47.477 27.2C47.877 26.9067 48.1704 26.5867 48.357 26.24C48.5704 25.8667 48.797 25.5333 49.037 25.24C49.3037 24.9467 49.5437 24.8 49.757 24.8C50.077 24.8 50.237 25.0133 50.237 25.44C50.237 25.8133 49.5704 26.7733 48.237 28.32C47.757 28.88 47.157 29.36 46.437 29.76C45.7437 30.1333 45.1837 30.32 44.757 30.32C44.4637 30.32 44.237 30.2933 44.077 30.24C43.917 30.1867 43.717 30.0667 43.477 29.88C43.2637 29.6667 43.0904 29.28 42.957 28.72C42.8504 28.16 42.797 27.44 42.797 26.56ZM53.2267 26.56C53.2267 25.8933 53.3067 24.9867 53.4667 23.84C53.6534 22.6933 53.8401 21.6 54.0267 20.56C54.2401 19.52 54.3467 18.9733 54.3467 18.92C54.4534 18.1733 54.6001 16.8933 54.7867 15.08C55.0001 13.2667 55.1734 11.9067 55.3067 11C56.1601 5.58667 56.5867 2.78666 56.5867 2.6C56.5867 2.06666 56.2534 1.8 55.5867 1.8C55.3734 1.8 55.1601 1.81333 54.9467 1.84C54.7601 1.84 54.5867 1.84 54.4267 1.84C53.6534 1.84 53.2667 1.65333 53.2667 1.28C53.2667 0.933332 53.4667 0.746666 53.8667 0.719998C54.9334 0.639999 55.9334 0.519999 56.8667 0.359998C57.8001 0.199998 58.4134 0.119998 58.7067 0.119998C59.2667 0.119998 59.5467 0.333332 59.5467 0.76C59.5467 0.973332 59.4801 1.28 59.3467 1.68C59.2401 2.08 59.1734 2.38667 59.1467 2.6C58.7201 4.86667 58.4267 6.58667 58.2667 7.76C58.1067 8.90667 57.9467 10.2533 57.7867 11.8C57.6534 13.32 57.4134 15.2133 57.0667 17.48C56.2934 22.84 55.9067 25.7067 55.9067 26.08C55.9067 26.7467 55.9467 27.1733 56.0267 27.36C56.1067 27.5467 56.2801 27.64 56.5467 27.64C57.0534 27.64 57.5067 27.4933 57.9067 27.2C58.3067 26.9067 58.6001 26.5867 58.7867 26.24C59.0001 25.8667 59.2267 25.5333 59.4667 25.24C59.7334 24.9467 59.9734 24.8 60.1867 24.8C60.5067 24.8 60.6667 25.0133 60.6667 25.44C60.6667 25.8133 60.0001 26.7733 58.6667 28.32C58.1867 28.88 57.5867 29.36 56.8667 29.76C56.1734 30.1333 55.6134 30.32 55.1867 30.32C54.8934 30.32 54.6667 30.2933 54.5067 30.24C54.3467 30.1867 54.1467 30.0667 53.9067 29.88C53.6934 29.6667 53.5201 29.28 53.3867 28.72C53.2801 28.16 53.2267 27.44 53.2267 26.56ZM61.9011 35C61.9011 34.6533 62.0211 34.3467 62.2611 34.08C62.5278 33.8133 62.8344 33.68 63.1811 33.68C63.6878 33.68 64.2344 33.8933 64.8211 34.32C65.4078 34.7733 66.0211 35 66.6611 35C67.7011 35 68.7811 34.12 69.9011 32.36C71.0478 30.6267 71.6211 29.2933 71.6211 28.36C71.6211 27.0533 70.7678 24.64 69.0611 21.12C67.3811 17.5733 66.0611 15.8 65.1011 15.8C64.4344 15.8 63.9544 16.0533 63.6611 16.56C63.3944 17.04 63.1944 17.5333 63.0611 18.04C62.9544 18.5467 62.7411 18.8 62.4211 18.8C62.1544 18.8 62.0211 18.5067 62.0211 17.92C62.0211 17.2533 62.1144 16.56 62.3011 15.84C62.4878 15.0933 62.8344 14.4 63.3411 13.76C63.8744 13.0933 64.5144 12.76 65.2611 12.76C66.1411 12.76 67.0744 13.36 68.0611 14.56C69.0744 15.7333 69.9278 17.0267 70.6211 18.44C71.3144 19.8533 71.9278 21.16 72.4611 22.36C72.9944 23.5333 73.3011 24.12 73.3811 24.12C73.6478 24.12 73.9544 23.2933 74.3011 21.64C74.6478 19.9867 74.8211 18.4933 74.8211 17.16C74.8211 16.76 74.6478 16.24 74.3011 15.6C73.9811 14.96 73.8211 14.4667 73.8211 14.12C73.8211 13.72 73.9278 13.3733 74.1411 13.08C74.3811 12.7867 74.7278 12.64 75.1811 12.64C75.6344 12.64 76.0078 12.84 76.3011 13.24C76.5944 13.64 76.7411 14.1467 76.7411 14.76C76.7411 15.88 76.4478 17.7067 75.8611 20.24C75.3011 22.7467 74.4878 25.3467 73.4211 28.04C70.9678 34.2533 68.2344 37.36 65.2211 37.36C63.0078 37.36 61.9011 36.5733 61.9011 35ZM87.2258 29.64C87.2258 29.2133 87.4124 29 87.7858 29C88.0791 29 88.3458 28.96 88.5858 28.88C88.8258 28.8 89.0258 28.6533 89.1858 28.44C89.3724 28.2267 89.5191 28.0667 89.6258 27.96C89.7324 27.8267 89.8258 27.5867 89.9058 27.24C89.9858 26.8667 90.0391 26.6267 90.0658 26.52C90.0924 26.4133 90.1324 26.16 90.1858 25.76L90.2658 25.12C90.5858 23.04 91.0258 19.32 91.5858 13.96C92.1458 8.57333 92.4258 5.57333 92.4258 4.96C92.4258 4.29333 92.0924 3.72 91.4258 3.24C91.2124 3.08 90.9458 2.97333 90.6258 2.92C90.3058 2.84 90.0258 2.8 89.7858 2.8C89.5458 2.77333 89.3324 2.72 89.1458 2.64C88.9858 2.53333 88.9058 2.37333 88.9058 2.16C88.9058 2.02667 88.9591 1.92 89.0658 1.84C89.1991 1.73333 89.3191 1.68 89.4258 1.68C89.4791 1.68 89.8258 1.70667 90.4658 1.76C91.1058 1.81333 91.6658 1.84 92.1458 1.84C92.6791 1.84 93.4791 1.84 94.5458 1.84C95.6124 1.81333 96.2391 1.8 96.4258 1.8C97.0124 1.8 97.7991 1.8 98.7858 1.8C99.7724 1.77333 100.479 1.76 100.906 1.76C103.279 1.76 105.226 2.28 106.746 3.32C108.266 4.36 109.026 5.96 109.026 8.12C109.026 9 108.826 9.84 108.426 10.64C108.052 11.44 107.586 12.1067 107.026 12.64C106.466 13.1467 105.906 13.5867 105.346 13.96C104.812 14.3333 104.346 14.6267 103.946 14.84C103.572 15.0533 103.386 15.1733 103.386 15.2C103.386 15.2533 103.586 15.3467 103.986 15.48C104.386 15.5867 104.866 15.76 105.426 16C105.986 16.24 106.546 16.5733 107.106 17C107.666 17.4 108.146 18 108.546 18.8C108.946 19.6 109.146 20.5467 109.146 21.64C109.146 22.52 108.932 23.4533 108.506 24.44C108.106 25.4267 107.399 26.4133 106.386 27.4C105.399 28.36 104.212 29.0667 102.826 29.52C101.546 29.92 99.8391 30.12 97.7058 30.12C96.7724 30.12 95.6791 30.0933 94.4258 30.04C93.1991 30.0133 92.4924 30 92.3058 30C92.0658 30 91.4391 30.04 90.4258 30.12C89.4391 30.2 88.6524 30.24 88.0658 30.24C87.5058 30.24 87.2258 30.04 87.2258 29.64ZM92.9858 27C92.9858 27.64 93.3191 28.12 93.9858 28.44C94.6524 28.7333 95.9458 28.88 97.8658 28.88C100.479 28.88 102.439 28.1467 103.746 26.68C105.079 25.2133 105.746 23.72 105.746 22.2C105.746 20.52 105.199 19.08 104.106 17.88C103.039 16.6533 101.386 15.9467 99.1458 15.76C97.2791 15.6267 96.1858 15.56 95.8658 15.56H94.7058C94.4658 15.56 94.2524 16.3733 94.0658 18C94.0124 18.3467 93.9458 18.9333 93.8658 19.76C93.7591 20.6667 93.6658 21.4 93.5858 21.96L93.2658 24.64C93.2391 24.9333 93.1991 25.28 93.1458 25.68C93.0924 26.0533 93.0524 26.3467 93.0258 26.56C92.9991 26.7733 92.9858 26.92 92.9858 27ZM94.7458 13.84C94.7458 14.1867 95.0258 14.4 95.5858 14.48C96.1458 14.5333 97.6524 14.56 100.106 14.56C101.146 14.56 102.066 14.3467 102.866 13.92C103.666 13.4933 104.266 12.96 104.666 12.32C105.066 11.68 105.359 11.0533 105.546 10.44C105.759 9.82667 105.866 9.25333 105.866 8.72C105.866 7.17333 105.279 5.90667 104.106 4.92C103.412 4.33333 102.639 3.90666 101.786 3.64C100.959 3.37333 99.7058 3.24 98.0258 3.24C97.2524 3.24 96.7324 3.34667 96.4658 3.56C96.1991 3.77333 96.0124 4.22666 95.9058 4.92L95.4258 8.2C94.9724 11.16 94.7458 13.04 94.7458 13.84ZM112.198 25.44C112.198 23.4933 112.945 21.32 114.438 18.92C116.038 16.4133 117.838 14.68 119.838 13.72C120.825 13.24 121.798 13 122.758 13C123.158 13 123.705 13.08 124.398 13.24C125.118 13.3733 125.705 13.44 126.158 13.44C126.425 13.44 126.771 13.12 127.198 12.48C127.625 11.8133 127.971 11.48 128.238 11.48C128.531 11.48 128.678 11.68 128.678 12.08C128.678 12.32 128.558 12.76 128.318 13.4C128.105 14.04 127.958 14.52 127.878 14.84C127.851 14.9467 127.545 16.6533 126.958 19.96C126.478 22.6 126.238 24.3067 126.238 25.08C126.238 25.64 126.371 26.1733 126.638 26.68C126.905 27.1867 127.225 27.44 127.598 27.44C128.078 27.44 128.625 27.0133 129.238 26.16C129.878 25.28 130.305 24.84 130.518 24.84C130.758 24.84 130.878 24.9867 130.878 25.28C130.878 25.76 130.638 26.3333 130.158 27C129.598 27.8267 128.931 28.5867 128.158 29.28C127.411 29.9467 126.785 30.28 126.278 30.28C125.531 30.28 124.971 29.9067 124.598 29.16C124.225 28.4133 123.998 27.6667 123.918 26.92C123.865 26.1733 123.825 25.8 123.798 25.8C123.771 25.8 123.611 25.9733 123.318 26.32C123.051 26.64 122.678 27.04 122.198 27.52C121.745 27.9733 121.225 28.44 120.638 28.92C120.078 29.3733 119.425 29.76 118.678 30.08C117.931 30.4267 117.198 30.6 116.478 30.6C114.771 30.6 113.625 30.1467 113.038 29.24C112.478 28.3067 112.198 27.04 112.198 25.44ZM114.998 25.2C114.998 26.16 115.291 26.9333 115.878 27.52C116.491 28.1067 117.238 28.4 118.118 28.4C119.345 28.4 120.411 27.9867 121.318 27.16C122.251 26.3067 122.891 25.52 123.238 24.8C123.531 24.24 123.838 23.1733 124.158 21.6C124.505 20.0267 124.771 18.6267 124.958 17.4C125.171 16.1733 125.278 15.5067 125.278 15.4C125.278 14.92 124.985 14.5733 124.398 14.36C123.811 14.12 123.225 14 122.638 14C121.785 14 120.891 14.2933 119.958 14.88C119.025 15.4667 118.265 16.2533 117.678 17.24C116.291 19.5333 115.465 21.4667 115.198 23.04C115.065 23.84 114.998 24.56 114.998 25.2ZM131.83 18.16C131.83 17.3067 131.95 16.5333 132.19 15.84C132.43 15.1467 132.71 14.6133 133.03 14.24C133.377 13.8667 133.737 13.5467 134.11 13.28C134.484 13.0133 134.79 12.84 135.03 12.76C135.297 12.68 135.484 12.64 135.59 12.64C136.23 12.64 136.724 13.1067 137.07 14.04C137.737 15.8 138.11 16.68 138.19 16.68C138.217 16.68 138.47 16.3467 138.95 15.68C139.43 14.9867 140.07 14.2933 140.87 13.6C141.697 12.9067 142.55 12.56 143.43 12.56C143.91 12.56 144.27 12.6933 144.51 12.96C144.777 13.2 144.91 13.48 144.91 13.8C144.91 14.0133 144.83 14.3067 144.67 14.68C144.537 15.0533 144.47 15.2533 144.47 15.28L144.43 15.6C144.377 15.84 144.324 16.0267 144.27 16.16C144.217 16.2933 144.124 16.44 143.99 16.6C143.884 16.7333 143.75 16.8 143.59 16.8C143.35 16.8 143.15 16.6667 142.99 16.4C142.83 16.1067 142.63 15.8267 142.39 15.56C142.15 15.2667 141.83 15.12 141.43 15.12C140.657 15.12 140.004 15.92 139.47 17.52C138.937 19.12 138.59 20.6267 138.43 22.04L138.23 23.36C137.75 27.12 137.404 29.2133 137.19 29.64C136.924 29.9867 136.524 30.16 135.99 30.16H135.79C134.99 30.16 134.59 29.8133 134.59 29.12C134.59 28.6933 134.87 27.12 135.43 24.4C136.017 21.68 136.31 19.76 136.31 18.64C136.31 16.8267 135.857 15.92 134.95 15.92C134.47 15.92 134.07 16.12 133.75 16.52C133.43 16.8933 133.19 17.3333 133.03 17.84C132.87 18.32 132.777 18.5733 132.75 18.6C132.59 18.76 132.444 18.84 132.31 18.84C131.99 18.84 131.83 18.6133 131.83 18.16ZM146.453 14.4C146.453 14.1867 146.586 14 146.853 13.84C147.146 13.6533 147.573 13.4 148.133 13.08C148.72 12.7333 149.253 12.3067 149.733 11.8C150.053 11.4533 150.36 11.1067 150.653 10.76C150.946 10.4133 151.146 10.1733 151.253 10.04C151.386 9.90667 151.506 9.8 151.613 9.72C151.746 9.64 151.893 9.6 152.053 9.6C152.32 9.6 152.453 9.76 152.453 10.08C152.453 10.24 152.333 10.7333 152.093 11.56C151.853 12.36 151.733 12.8667 151.733 13.08C151.733 13.2133 151.8 13.2933 151.933 13.32C152.093 13.3467 152.493 13.36 153.133 13.36C153.746 13.36 154.266 13.36 154.693 13.36C155.146 13.3333 155.4 13.32 155.453 13.32C156.146 13.32 156.493 13.5733 156.493 14.08C156.493 14.5333 156.426 14.84 156.293 15C156.16 15.16 155.906 15.24 155.533 15.24C155.346 15.24 154.84 15.2133 154.013 15.16C153.186 15.08 152.613 15.04 152.293 15.04C152.133 15.04 151.986 15.0533 151.853 15.08C151.746 15.1067 151.653 15.16 151.573 15.24C151.493 15.32 151.426 15.4 151.373 15.48C151.32 15.5333 151.28 15.64 151.253 15.8C151.226 15.96 151.2 16.0933 151.173 16.2C151.146 16.3067 151.12 16.4933 151.093 16.76C151.066 17.0267 151.04 17.24 151.013 17.4C150.933 18.04 150.773 19.04 150.533 20.4C150.32 21.76 150.133 22.9467 149.973 23.96C149.813 24.9467 149.733 25.5333 149.733 25.72C149.733 26.36 149.866 26.8667 150.133 27.24C150.426 27.5867 150.666 27.7867 150.853 27.84C151.04 27.8933 151.213 27.92 151.373 27.92C152.013 27.92 152.6 27.7733 153.133 27.48C153.666 27.1867 154.093 26.8933 154.413 26.6C154.733 26.3067 154.973 26.16 155.133 26.16C155.426 26.16 155.573 26.3467 155.573 26.72C155.573 27.3067 154.88 28.08 153.493 29.04C152.106 30 150.84 30.48 149.693 30.48C149 30.48 148.4 30.2 147.893 29.64C147.386 29.08 147.133 28.1067 147.133 26.72C147.133 25.28 147.413 23.08 147.973 20.12C148.533 17.16 148.813 15.6133 148.813 15.48C148.813 15.2133 148.413 15.0667 147.613 15.04C146.84 15.0133 146.453 14.8 146.453 14.4ZM157.979 23.24C157.979 20.52 158.833 18.0667 160.539 15.88C162.273 13.6933 164.566 12.6 167.419 12.6C169.313 12.6 170.753 13.28 171.739 14.64C172.753 15.9733 173.259 17.6533 173.259 19.68C173.259 21.4133 172.913 23.08 172.219 24.68C171.553 26.28 170.499 27.64 169.059 28.76C167.619 29.8533 165.966 30.4 164.099 30.4C162.339 30.4 160.873 29.7867 159.699 28.56C158.553 27.3333 157.979 25.56 157.979 23.24ZM161.059 23.28C161.059 25.2 161.379 26.6667 162.019 27.68C162.686 28.6933 163.526 29.2 164.539 29.2C165.553 29.2 166.446 28.84 167.219 28.12C168.019 27.4 168.619 26.5067 169.019 25.44C169.446 24.3467 169.766 23.2667 169.979 22.2C170.193 21.1067 170.299 20.1067 170.299 19.2C170.299 17.4133 169.966 16.0667 169.299 15.16C168.659 14.2533 167.846 13.8 166.859 13.8C165.846 13.8 164.873 14.2533 163.939 15.16C163.006 16.04 162.313 17.2533 161.859 18.8C161.326 20.6667 161.059 22.16 161.059 23.28ZM176.195 26.56C176.195 25.8933 176.275 24.9867 176.435 23.84C176.622 22.6933 176.809 21.6 176.995 20.56C177.209 19.52 177.315 18.9733 177.315 18.92C177.422 18.1733 177.569 16.8933 177.755 15.08C177.969 13.2667 178.142 11.9067 178.275 11C179.129 5.58667 179.555 2.78666 179.555 2.6C179.555 2.06666 179.222 1.8 178.555 1.8C178.342 1.8 178.129 1.81333 177.915 1.84C177.729 1.84 177.555 1.84 177.395 1.84C176.622 1.84 176.235 1.65333 176.235 1.28C176.235 0.933332 176.435 0.746666 176.835 0.719998C177.902 0.639999 178.902 0.519999 179.835 0.359998C180.769 0.199998 181.382 0.119998 181.675 0.119998C182.235 0.119998 182.515 0.333332 182.515 0.76C182.515 0.973332 182.449 1.28 182.315 1.68C182.209 2.08 182.142 2.38667 182.115 2.6C181.689 4.86667 181.395 6.58667 181.235 7.76C181.075 8.90667 180.915 10.2533 180.755 11.8C180.622 13.32 180.382 15.2133 180.035 17.48C179.262 22.84 178.875 25.7067 178.875 26.08C178.875 26.7467 178.915 27.1733 178.995 27.36C179.075 27.5467 179.249 27.64 179.515 27.64C180.022 27.64 180.475 27.4933 180.875 27.2C181.275 26.9067 181.569 26.5867 181.755 26.24C181.969 25.8667 182.195 25.5333 182.435 25.24C182.702 24.9467 182.942 24.8 183.155 24.8C183.475 24.8 183.635 25.0133 183.635 25.44C183.635 25.8133 182.969 26.7733 181.635 28.32C181.155 28.88 180.555 29.36 179.835 29.76C179.142 30.1333 178.582 30.32 178.155 30.32C177.862 30.32 177.635 30.2933 177.475 30.24C177.315 30.1867 177.115 30.0667 176.875 29.88C176.662 29.6667 176.489 29.28 176.355 28.72C176.249 28.16 176.195 27.44 176.195 26.56ZM186.065 25.44C186.065 23.4933 186.812 21.32 188.305 18.92C189.905 16.4133 191.705 14.68 193.705 13.72C194.692 13.24 195.665 13 196.625 13C197.025 13 197.572 13.08 198.265 13.24C198.985 13.3733 199.572 13.44 200.025 13.44C200.292 13.44 200.638 13.12 201.065 12.48C201.492 11.8133 201.838 11.48 202.105 11.48C202.398 11.48 202.545 11.68 202.545 12.08C202.545 12.32 202.425 12.76 202.185 13.4C201.972 14.04 201.825 14.52 201.745 14.84C201.718 14.9467 201.412 16.6533 200.825 19.96C200.345 22.6 200.105 24.3067 200.105 25.08C200.105 25.64 200.238 26.1733 200.505 26.68C200.772 27.1867 201.092 27.44 201.465 27.44C201.945 27.44 202.492 27.0133 203.105 26.16C203.745 25.28 204.172 24.84 204.385 24.84C204.625 24.84 204.745 24.9867 204.745 25.28C204.745 25.76 204.505 26.3333 204.025 27C203.465 27.8267 202.798 28.5867 202.025 29.28C201.278 29.9467 200.652 30.28 200.145 30.28C199.398 30.28 198.838 29.9067 198.465 29.16C198.092 28.4133 197.865 27.6667 197.785 26.92C197.732 26.1733 197.692 25.8 197.665 25.8C197.638 25.8 197.478 25.9733 197.185 26.32C196.918 26.64 196.545 27.04 196.065 27.52C195.612 27.9733 195.092 28.44 194.505 28.92C193.945 29.3733 193.292 29.76 192.545 30.08C191.798 30.4267 191.065 30.6 190.345 30.6C188.638 30.6 187.492 30.1467 186.905 29.24C186.345 28.3067 186.065 27.04 186.065 25.44ZM188.865 25.2C188.865 26.16 189.158 26.9333 189.745 27.52C190.358 28.1067 191.105 28.4 191.985 28.4C193.212 28.4 194.278 27.9867 195.185 27.16C196.118 26.3067 196.758 25.52 197.105 24.8C197.398 24.24 197.705 23.1733 198.025 21.6C198.372 20.0267 198.638 18.6267 198.825 17.4C199.038 16.1733 199.145 15.5067 199.145 15.4C199.145 14.92 198.852 14.5733 198.265 14.36C197.678 14.12 197.092 14 196.505 14C195.652 14 194.758 14.2933 193.825 14.88C192.892 15.4667 192.132 16.2533 191.545 17.24C190.158 19.5333 189.332 21.4667 189.065 23.04C188.932 23.84 188.865 24.56 188.865 25.2ZM206.058 17.12C206.058 16.4533 206.511 15.5467 207.418 14.4C208.351 13.2533 209.178 12.68 209.898 12.68C210.431 12.68 210.844 12.8933 211.138 13.32C211.431 13.7467 211.604 14.2267 211.658 14.76C211.711 15.2667 211.764 15.7333 211.818 16.16C211.871 16.5867 211.951 16.8 212.058 16.8C212.111 16.8 212.191 16.72 212.298 16.56C212.431 16.4 212.618 16.1867 212.858 15.92C213.098 15.6267 213.378 15.3333 213.698 15.04C214.044 14.72 214.498 14.3867 215.058 14.04C215.644 13.6933 216.284 13.4 216.978 13.16C217.804 12.8667 218.578 12.72 219.298 12.72C220.871 12.72 221.658 13.7067 221.658 15.68V16.52C221.658 16.7333 221.684 16.84 221.738 16.84C221.818 16.84 221.911 16.7733 222.018 16.64C222.124 16.48 222.284 16.2533 222.498 15.96C222.711 15.6667 222.951 15.4 223.218 15.16C224.924 13.5067 226.578 12.68 228.178 12.68C228.898 12.68 229.498 12.8667 229.978 13.24C230.484 13.6133 230.831 14.08 231.018 14.64C231.204 15.2 231.324 15.6533 231.378 16C231.431 16.3467 231.458 16.6533 231.458 16.92C231.458 17.56 231.324 19.16 231.058 21.72C230.791 24.2533 230.658 25.72 230.658 26.12C230.658 27.0533 230.924 27.52 231.458 27.52C231.671 27.52 231.911 27.44 232.178 27.28C232.471 27.12 232.711 26.96 232.898 26.8L233.178 26.6C233.258 26.4933 233.351 26.36 233.458 26.2C233.591 26.0133 233.684 25.88 233.738 25.8C233.791 25.72 233.871 25.6533 233.978 25.6C234.111 25.52 234.244 25.48 234.378 25.48C234.644 25.48 234.778 25.64 234.778 25.96C234.778 26.7333 234.124 27.6267 232.818 28.64C231.511 29.6267 230.404 30.12 229.498 30.12C229.098 30.12 228.751 29.88 228.458 29.4C228.164 28.8933 228.018 28.2933 228.018 27.6C228.018 27.4933 228.164 26.0533 228.458 23.28C228.751 20.5067 228.898 18.64 228.898 17.68C228.898 16.72 228.658 15.9733 228.178 15.44C227.724 14.88 227.244 14.6 226.738 14.6C225.938 14.6 225.164 14.9867 224.418 15.76C223.671 16.5067 223.124 17.2 222.778 17.84C222.458 18.4533 222.271 18.8933 222.218 19.16C222.031 19.8 221.871 20.6533 221.738 21.72C221.604 22.7867 221.444 24.2667 221.258 26.16C221.098 28.0267 221.018 29.0267 221.018 29.16C220.964 29.88 220.418 30.24 219.378 30.24C218.631 30.24 218.258 29.8133 218.258 28.96C218.258 28.8533 218.498 27.2933 218.978 24.28C219.458 21.24 219.698 18.9733 219.698 17.48C219.698 17.2933 219.658 17.08 219.578 16.84C219.524 16.5733 219.418 16.2667 219.258 15.92C219.098 15.5467 218.804 15.24 218.378 15C217.978 14.76 217.471 14.64 216.858 14.64C216.564 14.64 216.231 14.72 215.858 14.88C215.511 15.04 215.098 15.3333 214.618 15.76C214.138 16.16 213.671 16.84 213.218 17.8C212.791 18.76 212.444 19.92 212.178 21.28C211.938 22.48 211.711 24.0533 211.498 26C211.311 27.9467 211.191 29.0533 211.138 29.32C211.111 29.56 210.938 29.7733 210.618 29.96C210.324 30.12 209.991 30.2 209.618 30.2C208.684 30.2 208.218 29.7467 208.218 28.84C208.218 28.3867 208.511 26.7067 209.098 23.8C209.711 20.8933 210.018 18.8667 210.018 17.72C210.018 17.0267 209.911 16.5333 209.698 16.24C209.484 15.92 209.244 15.76 208.978 15.76C208.524 15.76 208.071 16.1467 207.618 16.92C207.164 17.6933 206.804 18.08 206.538 18.08C206.218 18.08 206.058 17.76 206.058 17.12ZM236.651 24.12C236.651 22.44 237.051 20.7733 237.851 19.12C238.651 17.4667 239.758 15.9867 241.171 14.68C242.664 13.2667 244.518 12.56 246.731 12.56C247.691 12.56 248.504 12.84 249.171 13.4C249.864 13.96 250.211 14.6667 250.211 15.52C250.211 16.1867 250.051 16.8267 249.731 17.44C249.411 18.0267 249.011 18.52 248.531 18.92C248.051 19.32 247.624 19.64 247.251 19.88C246.904 20.0933 246.598 20.2533 246.331 20.36C244.784 21.0533 242.691 21.4133 240.051 21.44C239.598 21.44 239.371 21.9867 239.371 23.08C239.371 24.6267 239.851 25.8533 240.811 26.76C241.771 27.64 243.211 28.08 245.131 28.08C245.798 28.08 246.451 27.9333 247.091 27.64C247.758 27.3467 248.291 27.0667 248.691 26.8C249.118 26.5067 249.371 26.36 249.451 26.36C249.771 26.36 249.931 26.4933 249.931 26.76C249.931 27.32 249.158 28.08 247.611 29.04C246.091 30 244.544 30.48 242.971 30.48C240.598 30.48 238.944 29.92 238.011 28.8C237.104 27.68 236.651 26.12 236.651 24.12ZM239.931 19.96C239.931 20.4933 240.051 20.76 240.291 20.76C242.184 20.76 243.851 20.2267 245.291 19.16C246.731 18.0933 247.451 16.92 247.451 15.64C247.451 14.9733 247.211 14.4933 246.731 14.2C246.278 13.9067 245.811 13.76 245.331 13.76C244.344 13.76 243.251 14.3867 242.051 15.64C241.518 16.2 241.024 16.9733 240.571 17.96C240.144 18.9467 239.931 19.6133 239.931 19.96ZM252.745 23.24C252.745 20.52 253.598 18.0667 255.305 15.88C257.038 13.6933 259.332 12.6 262.185 12.6C264.078 12.6 265.518 13.28 266.505 14.64C267.518 15.9733 268.025 17.6533 268.025 19.68C268.025 21.4133 267.678 23.08 266.985 24.68C266.318 26.28 265.265 27.64 263.825 28.76C262.385 29.8533 260.732 30.4 258.865 30.4C257.105 30.4 255.638 29.7867 254.465 28.56C253.318 27.3333 252.745 25.56 252.745 23.24ZM255.825 23.28C255.825 25.2 256.145 26.6667 256.785 27.68C257.452 28.6933 258.292 29.2 259.305 29.2C260.318 29.2 261.212 28.84 261.985 28.12C262.785 27.4 263.385 26.5067 263.785 25.44C264.212 24.3467 264.532 23.2667 264.745 22.2C264.958 21.1067 265.065 20.1067 265.065 19.2C265.065 17.4133 264.732 16.0667 264.065 15.16C263.425 14.2533 262.612 13.8 261.625 13.8C260.612 13.8 259.638 14.2533 258.705 15.16C257.772 16.04 257.078 17.2533 256.625 18.8C256.092 20.6667 255.825 22.16 255.825 23.28ZM270.961 26.56C270.961 25.8933 271.041 24.9867 271.201 23.84C271.388 22.6933 271.574 21.6 271.761 20.56C271.974 19.52 272.081 18.9733 272.081 18.92C272.188 18.1733 272.334 16.8933 272.521 15.08C272.734 13.2667 272.908 11.9067 273.041 11C273.894 5.58667 274.321 2.78666 274.321 2.6C274.321 2.06666 273.988 1.8 273.321 1.8C273.108 1.8 272.894 1.81333 272.681 1.84C272.494 1.84 272.321 1.84 272.161 1.84C271.388 1.84 271.001 1.65333 271.001 1.28C271.001 0.933332 271.201 0.746666 271.601 0.719998C272.668 0.639999 273.668 0.519999 274.601 0.359998C275.534 0.199998 276.148 0.119998 276.441 0.119998C277.001 0.119998 277.281 0.333332 277.281 0.76C277.281 0.973332 277.214 1.28 277.081 1.68C276.974 2.08 276.908 2.38667 276.881 2.6C276.454 4.86667 276.161 6.58667 276.001 7.76C275.841 8.90667 275.681 10.2533 275.521 11.8C275.388 13.32 275.148 15.2133 274.801 17.48C274.028 22.84 273.641 25.7067 273.641 26.08C273.641 26.7467 273.681 27.1733 273.761 27.36C273.841 27.5467 274.014 27.64 274.281 27.64C274.788 27.64 275.241 27.4933 275.641 27.2C276.041 26.9067 276.334 26.5867 276.521 26.24C276.734 25.8667 276.961 25.5333 277.201 25.24C277.468 24.9467 277.708 24.8 277.921 24.8C278.241 24.8 278.401 25.0133 278.401 25.44C278.401 25.8133 277.734 26.7733 276.401 28.32C275.921 28.88 275.321 29.36 274.601 29.76C273.908 30.1333 273.348 30.32 272.921 30.32C272.628 30.32 272.401 30.2933 272.241 30.24C272.081 30.1867 271.881 30.0667 271.641 29.88C271.428 29.6667 271.254 29.28 271.121 28.72C271.014 28.16 270.961 27.44 270.961 26.56ZM281.391 26.56C281.391 25.8933 281.471 24.9867 281.631 23.84C281.817 22.6933 282.004 21.6 282.191 20.56C282.404 19.52 282.511 18.9733 282.511 18.92C282.617 18.1733 282.764 16.8933 282.951 15.08C283.164 13.2667 283.337 11.9067 283.471 11C284.324 5.58667 284.751 2.78666 284.751 2.6C284.751 2.06666 284.417 1.8 283.751 1.8C283.537 1.8 283.324 1.81333 283.111 1.84C282.924 1.84 282.751 1.84 282.591 1.84C281.817 1.84 281.431 1.65333 281.431 1.28C281.431 0.933332 281.631 0.746666 282.031 0.719998C283.097 0.639999 284.097 0.519999 285.031 0.359998C285.964 0.199998 286.577 0.119998 286.871 0.119998C287.431 0.119998 287.711 0.333332 287.711 0.76C287.711 0.973332 287.644 1.28 287.511 1.68C287.404 2.08 287.337 2.38667 287.311 2.6C286.884 4.86667 286.591 6.58667 286.431 7.76C286.271 8.90667 286.111 10.2533 285.951 11.8C285.817 13.32 285.577 15.2133 285.231 17.48C284.457 22.84 284.071 25.7067 284.071 26.08C284.071 26.7467 284.111 27.1733 284.191 27.36C284.271 27.5467 284.444 27.64 284.711 27.64C285.217 27.64 285.671 27.4933 286.071 27.2C286.471 26.9067 286.764 26.5867 286.951 26.24C287.164 25.8667 287.391 25.5333 287.631 25.24C287.897 24.9467 288.137 24.8 288.351 24.8C288.671 24.8 288.831 25.0133 288.831 25.44C288.831 25.8133 288.164 26.7733 286.831 28.32C286.351 28.88 285.751 29.36 285.031 29.76C284.337 30.1333 283.777 30.32 283.351 30.32C283.057 30.32 282.831 30.2933 282.671 30.24C282.511 30.1867 282.311 30.0667 282.071 29.88C281.857 29.6667 281.684 29.28 281.551 28.72C281.444 28.16 281.391 27.44 281.391 26.56ZM295.02 6.28C295.02 6.06667 295.274 5.66667 295.78 5.08C296.287 4.46667 296.7 4.16 297.02 4.16C297.394 4.16 297.74 4.41333 298.06 4.92C298.407 5.42667 298.58 5.88 298.58 6.28C298.58 6.65333 298.34 7.10666 297.86 7.64C297.38 8.14667 297.034 8.4 296.82 8.4C296.5 8.4 296.114 8.10667 295.66 7.52C295.234 6.93333 295.02 6.52 295.02 6.28ZM290.78 14.16C290.78 13.7867 291.087 13.6 291.7 13.6H292.1C292.58 13.6 293.247 13.5467 294.1 13.44C294.98 13.3067 295.834 13.24 296.66 13.24C297.034 13.24 297.22 13.3867 297.22 13.68C297.22 14.0267 297.06 14.72 296.74 15.76C296.447 16.8 296.247 17.6533 296.14 18.32C295.34 23.36 294.94 26.0133 294.94 26.28C294.94 26.5467 295.02 26.8 295.18 27.04C295.34 27.2533 295.527 27.36 295.74 27.36C296.274 27.36 296.78 27.0133 297.26 26.32C297.767 25.6267 298.087 25.28 298.22 25.28C298.487 25.28 298.62 25.4267 298.62 25.72C298.62 25.96 298.487 26.3467 298.22 26.88C297.954 27.4133 297.7 27.8 297.46 28.04C295.994 29.6133 294.767 30.4 293.78 30.4C292.794 30.4 292.3 29.2933 292.3 27.08C292.3 26.0133 292.594 24 293.18 21.04C293.794 18.0533 294.1 16.2133 294.1 15.52C294.1 15.2 294.034 14.9867 293.9 14.88C293.767 14.7467 293.514 14.68 293.14 14.68C292.82 14.68 292.447 14.68 292.02 14.68C291.62 14.6533 291.394 14.64 291.34 14.64C290.967 14.64 290.78 14.48 290.78 14.16ZM301.66 36.12C301.66 35.96 301.727 35.8 301.86 35.64C302.02 35.48 302.22 35.3067 302.46 35.12C302.727 34.9333 302.9 34.7867 302.98 34.68C303.967 33.5867 304.46 32.3733 304.46 31.04C304.46 30.4267 304.274 29.9067 303.9 29.48C303.527 29.0533 303.154 28.72 302.78 28.48C302.434 28.2133 302.26 27.9733 302.26 27.76C302.26 27.6267 302.554 27.1867 303.14 26.44C303.754 25.6667 304.22 25.28 304.54 25.28C305.074 25.28 305.594 25.68 306.1 26.48C306.607 27.28 306.86 28.4533 306.86 30C306.86 31.3333 306.26 32.7733 305.06 34.32C303.887 35.8667 302.954 36.64 302.26 36.64C301.86 36.64 301.66 36.4667 301.66 36.12ZM110.859 90.6C110.859 90.5467 110.859 90.5067 110.859 90.48C110.859 90.4267 110.859 90.3867 110.859 90.36C110.885 90.3067 110.912 90.28 110.939 90.28C110.965 90.2533 110.992 90.2267 111.019 90.2C111.072 90.1733 111.112 90.1467 111.139 90.12C111.192 90.0933 111.259 90.0667 111.339 90.04C111.445 89.9867 111.539 89.9467 111.619 89.92C111.699 89.8933 111.805 89.8533 111.939 89.8C112.099 89.7467 112.245 89.6933 112.379 89.64C113.019 89.4 113.485 88.8533 113.779 88C114.072 87.12 114.419 85.5733 114.819 83.36C114.925 82.7733 115.005 82.32 115.059 82C115.085 81.8667 115.312 80.72 115.739 78.56C116.192 76.4 116.525 74.6533 116.739 73.32C116.952 71.9867 117.059 70.96 117.059 70.24C117.059 70.0533 117.045 69.7733 117.019 69.4C117.019 69.0267 117.019 68.7333 117.019 68.52C117.019 67.16 116.619 65.92 115.819 64.8C115.499 64.3733 115.165 64.1067 114.819 64C114.472 63.8667 113.992 63.8 113.379 63.8H112.779C112.379 63.8 112.179 63.6 112.179 63.2C112.179 62.7467 113.125 62.52 115.019 62.52H115.259C115.632 62.52 116.099 62.52 116.659 62.52C117.219 62.4933 117.605 62.48 117.819 62.48C118.245 62.48 118.605 62.76 118.899 63.32C119.192 63.88 119.872 65.4933 120.939 68.16C121.952 70.6667 123.099 73.36 124.379 76.24C125.659 79.0933 126.725 81.4267 127.579 83.24C128.459 85.0533 128.952 85.96 129.059 85.96C129.299 85.96 131.445 81.88 135.499 73.72C135.525 73.6667 135.925 72.8933 136.699 71.4C137.472 69.88 138.045 68.72 138.419 67.92C138.739 67.28 139.045 66.6133 139.339 65.92C139.632 65.2267 139.845 64.72 139.979 64.4C140.112 64.0533 140.259 63.7333 140.419 63.44C140.579 63.12 140.725 62.92 140.859 62.84C140.992 62.7333 141.152 62.68 141.339 62.68H142.539C142.805 62.68 143.232 62.6533 143.819 62.6C144.405 62.5467 144.712 62.52 144.739 62.52C145.379 62.52 145.699 62.7067 145.699 63.08C145.699 63.1867 145.632 63.3067 145.499 63.44C145.365 63.5733 145.245 63.6533 145.139 63.68C145.032 63.7067 144.819 63.7467 144.499 63.8C144.205 63.8267 144.005 63.8667 143.899 63.92C143.819 63.9467 143.672 64.0533 143.459 64.24C143.272 64.4 143.125 64.64 143.019 64.96C142.939 65.28 142.832 65.7333 142.699 66.32C142.565 66.88 142.459 67.5867 142.379 68.44C142.245 69.6667 142.179 71.1333 142.179 72.84V75.96C142.179 76.7333 142.165 77.7733 142.139 79.08C142.112 80.36 142.099 81.2133 142.099 81.64C142.099 81.8267 142.085 82 142.059 82.16C142.059 82.32 142.059 82.48 142.059 82.64C142.059 82.8 142.045 83.24 142.019 83.96C142.019 84.6533 142.019 85.5867 142.019 86.76C142.019 87.88 142.165 88.6667 142.459 89.12C142.752 89.5733 143.272 89.8667 144.019 90C144.445 90.0533 144.765 90.0933 144.979 90.12C145.379 90.1733 145.579 90.3333 145.579 90.6C145.579 90.9733 145.205 91.16 144.459 91.16C144.192 91.16 143.592 91.12 142.659 91.04C141.725 90.9867 140.939 90.96 140.299 90.96C139.952 90.96 139.432 90.9867 138.739 91.04C138.072 91.12 137.485 91.16 136.979 91.16C136.419 91.16 136.139 91 136.139 90.68C136.139 90.4933 136.245 90.3467 136.459 90.24C136.672 90.1067 136.912 90.0133 137.179 89.96C137.472 89.9067 137.779 89.7467 138.099 89.48C138.419 89.2133 138.645 88.84 138.779 88.36C139.179 87.0267 139.379 82.7067 139.379 75.4C139.379 72.3333 139.299 70.8 139.139 70.8C138.872 70.8 138.352 71.5467 137.579 73.04L131.739 84.36C130.992 85.8267 130.232 87.36 129.459 88.96C129.005 89.8933 128.712 90.4533 128.579 90.64C128.445 90.8 128.259 90.88 128.019 90.88C127.832 90.88 127.325 89.9867 126.499 88.2C125.699 86.4133 123.512 81.48 119.939 73.4C119.485 72.3333 119.205 71.72 119.099 71.56C119.019 71.3733 118.925 71.28 118.819 71.28C118.739 71.28 118.632 71.5067 118.499 71.96C118.365 72.4133 118.285 72.7733 118.259 73.04C118.045 74.88 117.579 77.6533 116.859 81.36C116.139 85.0667 115.779 87.3333 115.779 88.16C115.779 89.0667 116.352 89.6267 117.499 89.84C117.579 89.8667 117.739 89.8933 117.979 89.92C118.245 89.9467 118.419 89.9733 118.499 90C118.605 90.0267 118.725 90.0667 118.859 90.12C119.019 90.1733 119.125 90.24 119.179 90.32C119.232 90.4 119.259 90.4933 119.259 90.6C119.259 90.92 118.979 91.08 118.419 91.08C117.912 91.08 117.192 91.0533 116.259 91C115.325 90.9733 114.805 90.96 114.699 90.96C114.645 90.96 114.312 90.9733 113.699 91C113.112 91.0533 112.472 91.08 111.779 91.08C111.165 91.08 110.859 90.92 110.859 90.6ZM147.187 90.44C147.187 90.0933 147.48 89.9067 148.067 89.88C149.027 89.8267 149.68 89.3333 150.027 88.4C150.187 87.92 150.453 86.6133 150.827 84.48C150.827 84.4 150.933 83.7067 151.147 82.4C151.36 81.0933 151.52 80.0133 151.627 79.16L153.067 67.04C153.093 66.8 153.107 66.52 153.107 66.2C153.107 65.4533 152.947 64.9067 152.627 64.56C152.307 64.1867 151.96 63.9867 151.587 63.96C151.213 63.9333 150.867 63.88 150.547 63.8C150.227 63.6933 150.067 63.52 150.067 63.28C150.067 62.88 150.373 62.68 150.987 62.68C151.227 62.68 151.773 62.6933 152.627 62.72C153.507 62.72 154.693 62.7333 156.187 62.76C157.707 62.76 159.347 62.76 161.107 62.76C161.667 62.76 163.253 62.7333 165.867 62.68C168.48 62.6267 169.973 62.6 170.347 62.6C170.827 62.6 171.067 62.8533 171.067 63.36C171.067 63.4933 171.04 63.8 170.987 64.28C170.933 64.7333 170.907 65.1333 170.907 65.48C170.907 65.6667 170.92 66 170.947 66.48C171 66.96 171.027 67.3467 171.027 67.64C171.027 68.3867 170.853 68.76 170.507 68.76C170.267 68.76 170.107 68.6667 170.027 68.48C169.947 68.2933 169.907 68.0667 169.907 67.8C169.907 67.5333 169.853 67.2 169.747 66.8C169.64 66.4 169.44 66.04 169.147 65.72C169.04 65.5867 168.853 65.44 168.587 65.28C168.32 65.12 167.853 64.9467 167.187 64.76C166.52 64.5467 165.773 64.44 164.947 64.44C163.933 64.44 162.853 64.4267 161.707 64.4C160.56 64.3467 159.587 64.32 158.787 64.32C157.613 64.32 156.893 64.4533 156.627 64.72C156.387 64.9867 156.16 65.76 155.947 67.04C155.28 71.7067 154.947 74.4133 154.947 75.16C154.947 75.4267 155.027 75.5867 155.187 75.64C155.373 75.6933 155.867 75.72 156.667 75.72C160.133 75.72 162.267 75.6667 163.067 75.56C163.893 75.4533 164.48 75.1867 164.827 74.76C165.093 74.44 165.307 74.0933 165.467 73.72C165.627 73.3467 165.747 73.08 165.827 72.92C165.907 72.76 166.027 72.68 166.187 72.68C166.507 72.68 166.667 72.8267 166.667 73.12C166.667 73.36 166.547 73.9867 166.307 75C166.093 75.9867 165.947 76.7467 165.867 77.28C165.813 77.5733 165.787 78.0933 165.787 78.84C165.787 79.5867 165.733 80.1733 165.627 80.6C165.547 81.0267 165.387 81.24 165.147 81.24C164.853 81.24 164.707 81.0267 164.707 80.6C164.707 79.32 164.48 78.52 164.027 78.2C163.253 77.64 161.827 77.36 159.747 77.36C158.947 77.36 158.293 77.36 157.787 77.36C157.307 77.36 157 77.36 156.867 77.36C156.76 77.3333 156.667 77.32 156.587 77.32C156.507 77.32 156.427 77.32 156.347 77.32C155.333 77.32 154.813 77.5467 154.787 78C154.707 78.8 154.533 80 154.267 81.6C154.027 83.1733 153.813 84.5733 153.627 85.8C153.44 87.0267 153.347 87.7333 153.347 87.92C153.347 88.56 153.667 88.9733 154.307 89.16C154.947 89.32 156.307 89.4 158.387 89.4C160.653 89.4 162.573 89.2 164.147 88.8C165.747 88.3733 166.827 87.92 167.387 87.44C167.973 86.9333 168.453 86.48 168.827 86.08C169.227 85.6533 169.507 85.44 169.667 85.44C169.933 85.44 170.067 85.6267 170.067 86C170.067 86.72 169.507 87.7867 168.387 89.2C167.267 90.6133 166.28 91.32 165.427 91.32C163.507 91.32 161.107 91.24 158.227 91.08C155.373 90.9467 153.653 90.88 153.067 90.88C152.32 90.88 151.547 90.9067 150.747 90.96C149.947 90.9867 149.227 91 148.587 91C147.653 91 147.187 90.8133 147.187 90.44ZM171.95 86C171.95 82.9333 173.003 80.1467 175.11 77.64C177.216 75.1067 179.483 73.84 181.91 73.84C182.256 73.84 182.736 73.9333 183.35 74.12C183.99 74.28 184.496 74.36 184.87 74.36C184.923 74.36 185.176 72.6133 185.63 69.12C186.083 65.6 186.31 63.7467 186.31 63.56C186.31 63.2667 186.19 63.0267 185.95 62.84C185.736 62.6533 185.47 62.56 185.15 62.56C185.016 62.56 184.83 62.5733 184.59 62.6C184.376 62.6 184.176 62.6 183.99 62.6H183.75C183.323 62.6 183.11 62.4533 183.11 62.16C183.11 61.9467 183.216 61.8 183.43 61.72C183.67 61.64 184.03 61.5733 184.51 61.52C185.016 61.4667 185.39 61.4133 185.63 61.36C186.003 61.2533 186.35 61.16 186.67 61.08C187.016 61 187.243 60.9467 187.35 60.92C187.483 60.8667 187.63 60.8267 187.79 60.8C187.95 60.7467 188.083 60.72 188.19 60.72C188.323 60.72 188.496 60.72 188.71 60.72C188.896 60.72 189.043 60.7867 189.15 60.92C189.283 61.0533 189.35 61.2133 189.35 61.4C189.35 61.5867 189.323 61.8267 189.27 62.12C189.243 62.4133 189.163 62.9733 189.03 63.8C188.923 64.6 188.776 65.5733 188.59 66.72C188.43 67.84 188.176 69.6133 187.83 72.04C187.483 74.44 187.11 77.12 186.71 80.08C186.15 83.9467 185.87 86.2 185.87 86.84C185.87 87.9867 186.216 88.56 186.91 88.56C187.416 88.56 187.896 88.36 188.35 87.96C188.83 87.5333 189.216 87.12 189.51 86.72C189.83 86.2933 190.07 86.08 190.23 86.08C190.523 86.08 190.67 86.2 190.67 86.44C190.67 87.0533 190.096 88.0267 188.95 89.36C187.83 90.6667 186.696 91.32 185.55 91.32C184.91 91.32 184.416 91.0933 184.07 90.64C183.723 90.16 183.523 89.64 183.47 89.08C183.416 88.52 183.363 88.0133 183.31 87.56C183.283 87.08 183.216 86.84 183.11 86.84C183.056 86.84 182.856 87.08 182.51 87.56C182.163 88.0133 181.75 88.52 181.27 89.08C180.816 89.64 180.176 90.16 179.35 90.64C178.523 91.0933 177.656 91.32 176.75 91.32C175.123 91.32 173.91 90.84 173.11 89.88C172.336 88.8933 171.95 87.6 171.95 86ZM174.75 84.88C174.75 86.1333 175.03 87.1333 175.59 87.88C176.15 88.6267 177.003 89 178.15 89C179.75 89 181.096 88.3067 182.19 86.92C182.883 86.0667 183.416 84.4133 183.79 81.96C184.19 79.5067 184.39 77.6133 184.39 76.28C184.39 75.7733 184.096 75.3867 183.51 75.12C182.95 74.8267 182.35 74.68 181.71 74.68C180.536 74.68 179.403 75.24 178.31 76.36C177.216 77.48 176.35 78.8267 175.71 80.4C175.07 81.9733 174.75 83.4667 174.75 84.88ZM193.034 89.16C193.034 88.92 193.474 88.4133 194.354 87.64C195.181 86.8667 195.728 86.48 195.994 86.48C196.234 86.48 196.621 86.88 197.154 87.68C197.208 87.76 197.314 87.88 197.474 88.04C197.661 88.2 197.794 88.3733 197.874 88.56C197.954 88.72 197.994 88.92 197.994 89.16C197.994 89.32 197.941 89.4667 197.834 89.6C197.754 89.7333 197.568 89.92 197.274 90.16C196.981 90.4 196.808 90.5467 196.754 90.6C196.088 91.2667 195.608 91.6 195.314 91.6C195.128 91.6 194.968 91.5467 194.834 91.44C194.701 91.3333 194.554 91.16 194.394 90.92C194.234 90.68 194.101 90.5067 193.994 90.4C193.914 90.32 193.834 90.24 193.754 90.16C193.674 90.08 193.608 90.0133 193.554 89.96C193.501 89.9067 193.434 89.8533 193.354 89.8C193.301 89.72 193.248 89.6667 193.194 89.64C193.168 89.5867 193.141 89.5333 193.114 89.48C193.088 89.4267 193.061 89.3733 193.034 89.32C193.034 89.2667 193.034 89.2133 193.034 89.16Z" fill="url(#paint0_linear)"/>
<path d="M0.996094 35.88H309.02V37.84H0.996094V35.88ZM110.059 96.88H199.954V98.84H110.059V96.88Z" fill="url(#paint1_linear)"/>
<defs>
<linearGradient id="paint0_linear" x1="155" y1="-10" x2="155" y2="77" gradientUnits="userSpaceOnUse">
<stop stop-color="white"/>
<stop offset="0.330961" stop-color="#EAC955"/>
</linearGradient>
<linearGradient id="paint1_linear" x1="155" y1="-10" x2="155" y2="77" gradientUnits="userSpaceOnUse">
<stop stop-color="white"/>
<stop offset="0.330961" stop-color="#EAC955"/>
</linearGradient>
</defs>
</svg>
