<svg width="433" height="88" viewBox="0 0 433 88" fill="none" xmlns="http://www.w3.org/2000/svg">
<g filter="url(#filter0_di)">
<path d="M32.6173 79.2505C27.1773 79.2505 21.8973 78.5785 16.7773 77.2345C11.6573 75.8905 7.49725 74.0985 4.29725 71.8585L10.5373 57.8425C13.5453 59.8265 17.0333 61.4265 21.0013 62.6425C24.9693 63.8585 28.8733 64.4665 32.7133 64.4665C40.0093 64.4665 43.6573 62.6425 43.6573 58.9945C43.6573 57.0745 42.6013 55.6665 40.4893 54.7705C38.4413 53.8105 35.1133 52.8185 30.5052 51.7945C25.4493 50.7065 21.2253 49.5545 17.8333 48.3385C14.4413 47.0585 11.5293 45.0425 9.09725 42.2905C6.66525 39.5385 5.44925 35.8265 5.44925 31.1545C5.44925 27.0585 6.56925 23.3785 8.80925 20.1145C11.0493 16.7865 14.3773 14.1625 18.7933 12.2425C23.2733 10.3225 28.7453 9.36249 35.2093 9.36249C39.6253 9.36249 43.9773 9.87449 48.2653 10.8985C52.5533 11.8585 56.3293 13.2985 59.5933 15.2185L53.7373 29.3305C47.3373 25.8745 41.1293 24.1465 35.1133 24.1465C31.3373 24.1465 28.5853 24.7225 26.8573 25.8745C25.1293 26.9625 24.2653 28.4025 24.2653 30.1945C24.2653 31.9865 25.2893 33.3305 27.3373 34.2265C29.3853 35.1225 32.6813 36.0505 37.2253 37.0105C42.3453 38.0985 46.5693 39.2825 49.8973 40.5625C53.2893 41.7785 56.2013 43.7625 58.6333 46.5145C61.1293 49.2025 62.3773 52.8825 62.3773 57.5545C62.3773 61.5865 61.2573 65.2345 59.0173 68.4985C56.7773 71.7625 53.4173 74.3865 48.9373 76.3705C44.4573 78.2905 39.0173 79.2505 32.6173 79.2505ZM123.478 51.9865C123.478 52.1145 123.382 53.6185 123.19 56.4985H85.3655C86.1335 59.1865 87.6055 61.2665 89.7815 62.7385C92.0215 64.1465 94.8055 64.8505 98.1335 64.8505C100.63 64.8505 102.774 64.4985 104.566 63.7945C106.422 63.0905 108.278 61.9385 110.134 60.3385L119.734 70.3225C114.678 75.9545 107.286 78.7705 97.5575 78.7705C91.4775 78.7705 86.1335 77.6185 81.5255 75.3145C76.9175 73.0105 73.3335 69.8105 70.7735 65.7145C68.2775 61.6185 67.0295 56.9785 67.0295 51.7945C67.0295 46.6745 68.2455 42.0985 70.6775 38.0665C73.1735 33.9705 76.5975 30.7705 80.9495 28.4665C85.3015 26.1625 90.1975 25.0105 95.6375 25.0105C100.822 25.0105 105.526 26.0985 109.75 28.2745C113.974 30.3865 117.302 33.4905 119.734 37.5865C122.23 41.6185 123.478 46.4185 123.478 51.9865ZM95.7335 37.9705C92.9175 37.9705 90.5495 38.7705 88.6295 40.3705C86.7735 41.9705 85.5895 44.1465 85.0775 46.8985H106.39C105.878 44.1465 104.662 41.9705 102.742 40.3705C100.886 38.7705 98.5495 37.9705 95.7335 37.9705ZM149.263 32.1145C151.119 29.7465 153.519 27.9865 156.463 26.8345C159.471 25.6185 162.895 25.0105 166.735 25.0105V41.4265C165.071 41.2345 163.695 41.1385 162.607 41.1385C158.703 41.1385 155.631 42.1945 153.391 44.3065C151.215 46.4185 150.127 49.6505 150.127 54.0025V77.9065H131.887V25.8745H149.263V32.1145ZM230.672 25.8745L209.168 77.9065H190.352L168.944 25.8745H187.664L200.144 57.6505L213.296 25.8745H230.672ZM235.387 25.8745H253.627V77.9065H235.387V25.8745ZM244.507 20.1145C241.179 20.1145 238.491 19.1865 236.443 17.3305C234.395 15.4745 233.371 13.1705 233.371 10.4185C233.371 7.66649 234.395 5.36249 236.443 3.50649C238.491 1.65049 241.179 0.722492 244.507 0.722492C247.835 0.722492 250.523 1.61849 252.571 3.41049C254.619 5.13849 255.643 7.37849 255.643 10.1305C255.643 13.0105 254.619 15.4105 252.571 17.3305C250.523 19.1865 247.835 20.1145 244.507 20.1145ZM292.073 78.7705C286.313 78.7705 281.161 77.6185 276.617 75.3145C272.073 73.0105 268.521 69.8105 265.961 65.7145C263.465 61.6185 262.217 56.9785 262.217 51.7945C262.217 46.6105 263.465 42.0025 265.961 37.9705C268.521 33.8745 272.073 30.7065 276.617 28.4665C281.161 26.1625 286.313 25.0105 292.073 25.0105C297.961 25.0105 303.049 26.2905 307.337 28.8505C311.625 31.3465 314.665 34.8345 316.457 39.3145L302.345 46.5145C299.977 41.8425 296.521 39.5065 291.977 39.5065C288.713 39.5065 285.993 40.5945 283.817 42.7705C281.705 44.9465 280.649 47.9545 280.649 51.7945C280.649 55.6985 281.705 58.7705 283.817 61.0105C285.993 63.1865 288.713 64.2745 291.977 64.2745C296.521 64.2745 299.977 61.9385 302.345 57.2665L316.457 64.4665C314.665 68.9465 311.625 72.4665 307.337 75.0265C303.049 77.5225 297.961 78.7705 292.073 78.7705ZM375.946 51.9865C375.946 52.1145 375.85 53.6185 375.658 56.4985H337.834C338.602 59.1865 340.074 61.2665 342.25 62.7385C344.49 64.1465 347.274 64.8505 350.602 64.8505C353.098 64.8505 355.242 64.4985 357.034 63.7945C358.89 63.0905 360.746 61.9385 362.602 60.3385L372.202 70.3225C367.146 75.9545 359.754 78.7705 350.026 78.7705C343.946 78.7705 338.602 77.6185 333.994 75.3145C329.386 73.0105 325.802 69.8105 323.242 65.7145C320.746 61.6185 319.498 56.9785 319.498 51.7945C319.498 46.6745 320.714 42.0985 323.146 38.0665C325.642 33.9705 329.066 30.7705 333.418 28.4665C337.77 26.1625 342.666 25.0105 348.106 25.0105C353.29 25.0105 357.994 26.0985 362.218 28.2745C366.442 30.3865 369.77 33.4905 372.202 37.5865C374.698 41.6185 375.946 46.4185 375.946 51.9865ZM348.202 37.9705C345.386 37.9705 343.018 38.7705 341.098 40.3705C339.242 41.9705 338.058 44.1465 337.546 46.8985H358.858C358.346 44.1465 357.13 41.9705 355.21 40.3705C353.354 38.7705 351.018 37.9705 348.202 37.9705ZM403.268 78.7705C398.916 78.7705 394.628 78.2905 390.404 77.3305C386.18 76.3065 382.788 74.9945 380.228 73.3945L385.7 60.9145C388.068 62.3865 390.884 63.5705 394.148 64.4665C397.412 65.2985 400.644 65.7145 403.844 65.7145C406.788 65.7145 408.868 65.4265 410.084 64.8505C411.364 64.2105 412.004 63.3145 412.004 62.1625C412.004 61.0105 411.236 60.2105 409.7 59.7625C408.228 59.2505 405.86 58.7705 402.596 58.3225C398.436 57.8105 394.884 57.1385 391.94 56.3065C389.06 55.4745 386.564 53.9385 384.452 51.6985C382.34 49.4585 381.284 46.3225 381.284 42.2905C381.284 38.9625 382.276 36.0185 384.26 33.4585C386.244 30.8345 389.124 28.7865 392.9 27.3145C396.74 25.7785 401.316 25.0105 406.628 25.0105C410.404 25.0105 414.148 25.3945 417.86 26.1625C421.572 26.9305 424.676 28.0185 427.172 29.4265L421.7 41.8105C417.092 39.2505 412.1 37.9705 406.724 37.9705C403.844 37.9705 401.732 38.3225 400.388 39.0265C399.044 39.6665 398.372 40.5305 398.372 41.6185C398.372 42.8345 399.108 43.6985 400.58 44.2105C402.052 44.6585 404.484 45.1385 407.876 45.6505C412.164 46.2905 415.716 47.0265 418.532 47.8585C421.348 48.6905 423.78 50.2265 425.828 52.4665C427.94 54.6425 428.996 57.7145 428.996 61.6825C428.996 64.9465 428.004 67.8905 426.02 70.5145C424.036 73.0745 421.092 75.0905 417.188 76.5625C413.348 78.0345 408.708 78.7705 403.268 78.7705Z" fill="url(#paint0_linear)"/>
</g>
<defs>
<filter id="filter0_di" x="0.297363" y="0.722473" width="432.699" height="86.528" filterUnits="userSpaceOnUse" color-interpolation-filters="sRGB">
<feFlood flood-opacity="0" result="BackgroundImageFix"/>
<feColorMatrix in="SourceAlpha" type="matrix" values="0 0 0 0 0 0 0 0 0 0 0 0 0 0 0 0 0 0 127 0"/>
<feOffset dy="4"/>
<feGaussianBlur stdDeviation="2"/>
<feColorMatrix type="matrix" values="0 0 0 0 0 0 0 0 0 0 0 0 0 0 0 0 0 0 0.25 0"/>
<feBlend mode="normal" in2="BackgroundImageFix" result="effect1_dropShadow"/>
<feBlend mode="normal" in="SourceGraphic" in2="effect1_dropShadow" result="shape"/>
<feColorMatrix in="SourceAlpha" type="matrix" values="0 0 0 0 0 0 0 0 0 0 0 0 0 0 0 0 0 0 127 0" result="hardAlpha"/>
<feOffset dy="4"/>
<feGaussianBlur stdDeviation="2"/>
<feComposite in2="hardAlpha" operator="arithmetic" k2="-1" k3="1"/>
<feColorMatrix type="matrix" values="0 0 0 0 0 0 0 0 0 0 0 0 0 0 0 0 0 0 0.25 0"/>
<feBlend mode="normal" in2="shape" result="effect2_innerShadow"/>
</filter>
<linearGradient id="paint0_linear" x1="216.5" y1="-15.0935" x2="216.5" y2="87.5761" gradientUnits="userSpaceOnUse">
<stop stop-color="white"/>
<stop offset="0.831597" stop-color="#EAC955"/>
<stop offset="1" stop-color="#E7CD71"/>
</linearGradient>
</defs>
</svg>
