<svg width="1765" height="104" viewBox="0 0 1765 104" fill="none" xmlns="http://www.w3.org/2000/svg">
<g filter="url(#filter0_d)">
<path d="M7 52.6801H120" stroke="#EAC955" stroke-width="6" stroke-linecap="round" stroke-linejoin="round"/>
</g>
<g filter="url(#filter1_d)">
<path d="M659 53H1765" stroke="#EAC955" stroke-width="6" stroke-linecap="round" stroke-linejoin="round"/>
</g>
<g filter="url(#filter2_di)">
<path d="M207.617 95.2505C202.177 95.2505 196.897 94.5785 191.777 93.2345C186.657 91.8905 182.497 90.0985 179.297 87.8585L185.537 73.8425C188.545 75.8265 192.033 77.4265 196.001 78.6425C199.969 79.8585 203.873 80.4665 207.713 80.4665C215.009 80.4665 218.657 78.6425 218.657 74.9945C218.657 73.0745 217.601 71.6665 215.489 70.7705C213.441 69.8105 210.113 68.8185 205.505 67.7945C200.449 66.7065 196.225 65.5545 192.833 64.3385C189.441 63.0585 186.529 61.0425 184.097 58.2905C181.665 55.5385 180.449 51.8265 180.449 47.1545C180.449 43.0585 181.569 39.3785 183.809 36.1145C186.049 32.7865 189.377 30.1625 193.793 28.2425C198.273 26.3225 203.745 25.3625 210.209 25.3625C214.625 25.3625 218.977 25.8745 223.265 26.8985C227.553 27.8585 231.329 29.2985 234.593 31.2185L228.737 45.3305C222.337 41.8745 216.129 40.1465 210.113 40.1465C206.337 40.1465 203.585 40.7225 201.857 41.8745C200.129 42.9625 199.265 44.4025 199.265 46.1945C199.265 47.9865 200.289 49.3305 202.337 50.2265C204.385 51.1225 207.681 52.0505 212.225 53.0105C217.345 54.0985 221.569 55.2825 224.897 56.5625C228.289 57.7785 231.201 59.7625 233.633 62.5145C236.129 65.2025 237.377 68.8825 237.377 73.5545C237.377 77.5865 236.257 81.2345 234.017 84.4985C231.777 87.7625 228.417 90.3865 223.937 92.3705C219.457 94.2905 214.017 95.2505 207.617 95.2505ZM298.478 67.9865C298.478 68.1145 298.382 69.6185 298.19 72.4985H260.366C261.134 75.1865 262.606 77.2665 264.781 78.7385C267.022 80.1465 269.806 80.8505 273.134 80.8505C275.63 80.8505 277.774 80.4985 279.566 79.7945C281.422 79.0905 283.278 77.9385 285.134 76.3385L294.734 86.3225C289.678 91.9545 282.286 94.7705 272.558 94.7705C266.478 94.7705 261.134 93.6185 256.526 91.3145C251.918 89.0105 248.334 85.8105 245.773 81.7145C243.278 77.6185 242.03 72.9785 242.03 67.7945C242.03 62.6745 243.246 58.0985 245.678 54.0665C248.174 49.9705 251.598 46.7705 255.95 44.4665C260.302 42.1625 265.198 41.0105 270.638 41.0105C275.822 41.0105 280.526 42.0985 284.75 44.2745C288.974 46.3865 292.302 49.4905 294.734 53.5865C297.23 57.6185 298.478 62.4185 298.478 67.9865ZM270.734 53.9705C267.918 53.9705 265.55 54.7705 263.63 56.3705C261.774 57.9705 260.59 60.1465 260.078 62.8985H281.39C280.878 60.1465 279.662 57.9705 277.742 56.3705C275.886 54.7705 273.55 53.9705 270.734 53.9705ZM324.263 48.1145C326.119 45.7465 328.519 43.9865 331.463 42.8345C334.471 41.6185 337.895 41.0105 341.735 41.0105V57.4265C340.071 57.2345 338.695 57.1385 337.607 57.1385C333.703 57.1385 330.631 58.1945 328.391 60.3065C326.215 62.4185 325.127 65.6505 325.127 70.0025V93.9065H306.887V41.8745H324.263V48.1145ZM405.672 41.8745L384.168 93.9065H365.352L343.944 41.8745H362.664L375.144 73.6505L388.296 41.8745H405.672ZM410.387 41.8745H428.627V93.9065H410.387V41.8745ZM419.507 36.1145C416.179 36.1145 413.491 35.1865 411.443 33.3305C409.395 31.4745 408.371 29.1705 408.371 26.4185C408.371 23.6665 409.395 21.3625 411.443 19.5065C413.491 17.6505 416.179 16.7225 419.507 16.7225C422.835 16.7225 425.523 17.6185 427.571 19.4105C429.619 21.1385 430.643 23.3785 430.643 26.1305C430.643 29.0105 429.619 31.4105 427.571 33.3305C425.523 35.1865 422.835 36.1145 419.507 36.1145ZM467.073 94.7705C461.313 94.7705 456.161 93.6185 451.617 91.3145C447.073 89.0105 443.521 85.8105 440.961 81.7145C438.465 77.6185 437.217 72.9785 437.217 67.7945C437.217 62.6105 438.465 58.0025 440.961 53.9705C443.521 49.8745 447.073 46.7065 451.617 44.4665C456.161 42.1625 461.313 41.0105 467.073 41.0105C472.961 41.0105 478.049 42.2905 482.337 44.8505C486.625 47.3465 489.665 50.8345 491.457 55.3145L477.345 62.5145C474.977 57.8425 471.521 55.5065 466.977 55.5065C463.713 55.5065 460.993 56.5945 458.817 58.7705C456.705 60.9465 455.649 63.9545 455.649 67.7945C455.649 71.6985 456.705 74.7705 458.817 77.0105C460.993 79.1865 463.713 80.2745 466.977 80.2745C471.521 80.2745 474.977 77.9385 477.345 73.2665L491.457 80.4665C489.665 84.9465 486.625 88.4665 482.337 91.0265C478.049 93.5225 472.961 94.7705 467.073 94.7705ZM550.946 67.9865C550.946 68.1145 550.85 69.6185 550.658 72.4985H512.834C513.602 75.1865 515.074 77.2665 517.25 78.7385C519.49 80.1465 522.274 80.8505 525.602 80.8505C528.098 80.8505 530.242 80.4985 532.034 79.7945C533.89 79.0905 535.746 77.9385 537.602 76.3385L547.202 86.3225C542.146 91.9545 534.754 94.7705 525.026 94.7705C518.946 94.7705 513.602 93.6185 508.994 91.3145C504.386 89.0105 500.802 85.8105 498.242 81.7145C495.746 77.6185 494.498 72.9785 494.498 67.7945C494.498 62.6745 495.714 58.0985 498.146 54.0665C500.642 49.9705 504.066 46.7705 508.418 44.4665C512.77 42.1625 517.666 41.0105 523.106 41.0105C528.29 41.0105 532.994 42.0985 537.218 44.2745C541.442 46.3865 544.77 49.4905 547.202 53.5865C549.698 57.6185 550.946 62.4185 550.946 67.9865ZM523.202 53.9705C520.386 53.9705 518.018 54.7705 516.098 56.3705C514.242 57.9705 513.058 60.1465 512.546 62.8985H533.858C533.346 60.1465 532.13 57.9705 530.21 56.3705C528.354 54.7705 526.018 53.9705 523.202 53.9705ZM578.268 94.7705C573.916 94.7705 569.628 94.2905 565.404 93.3305C561.18 92.3065 557.788 90.9945 555.228 89.3945L560.7 76.9145C563.068 78.3865 565.884 79.5705 569.148 80.4665C572.412 81.2985 575.644 81.7145 578.844 81.7145C581.788 81.7145 583.868 81.4265 585.084 80.8505C586.364 80.2105 587.004 79.3145 587.004 78.1625C587.004 77.0105 586.236 76.2105 584.7 75.7625C583.228 75.2505 580.86 74.7705 577.596 74.3225C573.436 73.8105 569.884 73.1385 566.94 72.3065C564.06 71.4745 561.564 69.9385 559.452 67.6985C557.34 65.4585 556.284 62.3225 556.284 58.2905C556.284 54.9625 557.276 52.0185 559.26 49.4585C561.244 46.8345 564.124 44.7865 567.9 43.3145C571.74 41.7785 576.316 41.0105 581.628 41.0105C585.404 41.0105 589.148 41.3945 592.86 42.1625C596.572 42.9305 599.676 44.0185 602.172 45.4265L596.7 57.8105C592.092 55.2505 587.1 53.9705 581.724 53.9705C578.844 53.9705 576.732 54.3225 575.388 55.0265C574.044 55.6665 573.372 56.5305 573.372 57.6185C573.372 58.8345 574.108 59.6985 575.58 60.2105C577.052 60.6585 579.484 61.1385 582.876 61.6505C587.164 62.2905 590.716 63.0265 593.532 63.8585C596.348 64.6905 598.78 66.2265 600.828 68.4665C602.94 70.6425 603.996 73.7145 603.996 77.6825C603.996 80.9465 603.004 83.8905 601.02 86.5145C599.036 89.0745 596.092 91.0905 592.188 92.5625C588.348 94.0345 583.708 94.7705 578.268 94.7705Z" fill="url(#paint0_linear)"/>
</g>
<defs>
<filter id="filter0_d" x="0" y="49.6801" width="127" height="14" filterUnits="userSpaceOnUse" color-interpolation-filters="sRGB">
<feFlood flood-opacity="0" result="BackgroundImageFix"/>
<feColorMatrix in="SourceAlpha" type="matrix" values="0 0 0 0 0 0 0 0 0 0 0 0 0 0 0 0 0 0 127 0"/>
<feOffset dy="4"/>
<feGaussianBlur stdDeviation="2"/>
<feColorMatrix type="matrix" values="0 0 0 0 0 0 0 0 0 0 0 0 0 0 0 0 0 0 0.25 0"/>
<feBlend mode="normal" in2="BackgroundImageFix" result="effect1_dropShadow"/>
<feBlend mode="normal" in="SourceGraphic" in2="effect1_dropShadow" result="shape"/>
</filter>
<filter id="filter1_d" x="652" y="50" width="1120" height="14" filterUnits="userSpaceOnUse" color-interpolation-filters="sRGB">
<feFlood flood-opacity="0" result="BackgroundImageFix"/>
<feColorMatrix in="SourceAlpha" type="matrix" values="0 0 0 0 0 0 0 0 0 0 0 0 0 0 0 0 0 0 127 0"/>
<feOffset dy="4"/>
<feGaussianBlur stdDeviation="2"/>
<feColorMatrix type="matrix" values="0 0 0 0 0 0 0 0 0 0 0 0 0 0 0 0 0 0 0.25 0"/>
<feBlend mode="normal" in2="BackgroundImageFix" result="effect1_dropShadow"/>
<feBlend mode="normal" in="SourceGraphic" in2="effect1_dropShadow" result="shape"/>
</filter>
<filter id="filter2_di" x="175.297" y="16.7225" width="432.699" height="86.528" filterUnits="userSpaceOnUse" color-interpolation-filters="sRGB">
<feFlood flood-opacity="0" result="BackgroundImageFix"/>
<feColorMatrix in="SourceAlpha" type="matrix" values="0 0 0 0 0 0 0 0 0 0 0 0 0 0 0 0 0 0 127 0"/>
<feOffset dy="4"/>
<feGaussianBlur stdDeviation="2"/>
<feColorMatrix type="matrix" values="0 0 0 0 0 0 0 0 0 0 0 0 0 0 0 0 0 0 0.25 0"/>
<feBlend mode="normal" in2="BackgroundImageFix" result="effect1_dropShadow"/>
<feBlend mode="normal" in="SourceGraphic" in2="effect1_dropShadow" result="shape"/>
<feColorMatrix in="SourceAlpha" type="matrix" values="0 0 0 0 0 0 0 0 0 0 0 0 0 0 0 0 0 0 127 0" result="hardAlpha"/>
<feOffset dy="4"/>
<feGaussianBlur stdDeviation="2"/>
<feComposite in2="hardAlpha" operator="arithmetic" k2="-1" k3="1"/>
<feColorMatrix type="matrix" values="0 0 0 0 0 0 0 0 0 0 0 0 0 0 0 0 0 0 0.25 0"/>
<feBlend mode="normal" in2="shape" result="effect2_innerShadow"/>
</filter>
<linearGradient id="paint0_linear" x1="391.5" y1="0.906494" x2="391.5" y2="103.576" gradientUnits="userSpaceOnUse">
<stop stop-color="white"/>
<stop offset="0.831597" stop-color="#EAC955"/>
<stop offset="1" stop-color="#E7CD71"/>
</linearGradient>
</defs>
</svg>
