<svg width="18" height="19" viewBox="0 0 18 19" fill="none" xmlns="http://www.w3.org/2000/svg">
<path d="M16.0577 4.69725C16.069 4.90339 16.069 5.10957 16.069 5.31571C16.069 11.6033 12.3783 18.848 5.63268 18.848C3.55449 18.848 1.62394 18.0675 0 16.7129C0.295272 16.757 0.579149 16.7717 0.885781 16.7717C2.60054 16.7717 4.17908 16.0208 5.43962 14.7397C3.82704 14.6955 2.47564 13.3261 2.01003 11.4413C2.23717 11.4854 2.46428 11.5149 2.70279 11.5149C3.03211 11.5149 3.36146 11.456 3.66806 11.353C1.98735 10.9112 0.726767 8.99695 0.726767 6.68513V6.62625C1.21507 6.97965 1.78292 7.20052 2.38476 7.22994C1.39677 6.37587 0.749488 4.91812 0.749488 3.26891C0.749488 2.38543 0.931154 1.57556 1.24915 0.868751C3.05479 3.75484 5.76894 5.63961 8.81237 5.84579C8.7556 5.49239 8.72152 5.12431 8.72152 4.75617C8.72152 2.1351 10.3568 0 12.3896 0C13.4457 0 14.3996 0.574273 15.0696 1.50195C15.8986 1.29581 16.6936 0.898213 17.3977 0.353402C17.1251 1.4578 16.5459 2.38547 15.7851 2.97443C16.5232 2.87141 17.2387 2.6063 17.8973 2.23821C17.3977 3.18057 16.7731 4.01986 16.0577 4.69725Z" fill="white"/>
</svg>
