<svg width="151" height="47" viewBox="0 0 151 47" fill="none" xmlns="http://www.w3.org/2000/svg">
<g filter="url(#filter0_i)">
<path d="M0.96 3.688C0.96 3.208 1.104 2.968 1.392 2.968C1.488 2.968 1.696 2.984 2.016 3.016C2.336 3.016 2.768 3.016 3.312 3.016C3.952 3.016 5.216 3.016 7.104 3.016C9.024 2.984 10.096 2.968 10.32 2.968C11.056 2.968 11.984 2.952 13.104 2.92C14.224 2.856 15.056 2.824 15.6 2.824C18.512 2.824 20.944 3.528 22.896 4.936C24.848 6.312 25.824 8.28 25.824 10.84C25.824 11.768 25.648 12.648 25.296 13.48C24.976 14.28 24.576 14.936 24.096 15.448C23.648 15.96 23.184 16.408 22.704 16.792C22.256 17.144 21.856 17.432 21.504 17.656C21.184 17.848 21.024 17.96 21.024 17.992C21.024 18.088 21.296 18.216 21.84 18.376C22.384 18.504 23.04 18.744 23.808 19.096C24.576 19.416 25.328 19.864 26.064 20.44C26.832 21.016 27.488 21.88 28.032 23.032C28.576 24.152 28.848 25.48 28.848 27.016C28.848 28.392 28.448 29.864 27.648 31.432C26.848 33 25.904 34.152 24.816 34.888C23.408 35.88 22.096 36.552 20.88 36.904C19.664 37.224 18.192 37.384 16.464 37.384C15.184 37.384 13.488 37.288 11.376 37.096C9.264 36.936 8.096 36.856 7.872 36.856C7.52 36.856 6.88 36.888 5.952 36.952C5.056 37.016 4.32 37.048 3.744 37.048H3.072C2.4 37.048 2.064 36.808 2.064 36.328C2.064 35.88 2.24 35.656 2.592 35.656C2.784 35.656 2.992 35.656 3.216 35.656C3.44 35.624 3.6 35.608 3.696 35.608C3.984 35.608 4.256 35.512 4.512 35.32C4.8 35.096 5.088 34.632 5.376 33.928C5.664 33.192 5.824 32.264 5.856 31.144C5.952 29.064 6 24.072 6 16.168V8.008C6 7.784 5.952 7.528 5.856 7.24C5.792 6.92 5.632 6.52 5.376 6.04C5.152 5.528 4.72 5.112 4.08 4.792C3.472 4.44 2.704 4.264 1.776 4.264C1.232 4.264 0.96 4.072 0.96 3.688ZM9.648 32.584C9.648 34.504 11.216 35.464 14.352 35.464H15.456C17.184 35.464 18.56 35.384 19.584 35.224C21.088 34.968 22.32 34.184 23.28 32.872C24.272 31.56 24.768 29.992 24.768 28.168C24.768 26.6 24.48 25.256 23.904 24.136C23.328 22.984 22.672 22.12 21.936 21.544C21.2 20.968 20.32 20.52 19.296 20.2C18.304 19.88 17.52 19.688 16.944 19.624C16.4 19.56 15.872 19.528 15.36 19.528C14.336 19.528 13.488 19.528 12.816 19.528C12.176 19.496 11.76 19.48 11.568 19.48C11.408 19.48 11.264 19.48 11.136 19.48C11.04 19.448 10.96 19.432 10.896 19.432C10.608 19.432 10.4 19.48 10.272 19.576C10.144 19.64 10.016 19.944 9.888 20.488C9.792 21 9.728 21.752 9.696 22.744C9.696 23.736 9.696 25.224 9.696 27.208V27.592C9.696 28.776 9.696 29.736 9.696 30.472C9.696 31.208 9.68 31.736 9.648 32.056C9.648 32.344 9.648 32.52 9.648 32.584ZM9.936 10.84C9.936 12.44 9.936 13.688 9.936 14.584C9.968 15.48 10.016 16.168 10.08 16.648C10.144 17.128 10.208 17.432 10.272 17.56C10.336 17.688 10.432 17.752 10.56 17.752C11.456 17.848 12.272 17.896 13.008 17.896H16.08C18.096 17.896 19.6 17.368 20.592 16.312C21.616 15.256 22.128 13.896 22.128 12.232C22.128 10.44 21.28 8.712 19.584 7.048C17.92 5.352 15.536 4.504 12.432 4.504C11.44 4.504 10.768 4.808 10.416 5.416C10.096 5.992 9.936 7.336 9.936 9.448V10.84ZM31.2904 18.76C31.2904 18.408 31.4984 18.152 31.9144 17.992C32.3624 17.8 33.1624 17.528 34.3144 17.176C35.4984 16.792 36.6024 16.36 37.6264 15.88C37.9464 15.752 38.1704 15.688 38.2984 15.688C38.7144 15.688 38.9224 16.008 38.9224 16.648C38.9224 16.776 38.9064 16.984 38.8744 17.272C38.8744 17.56 38.8744 17.784 38.8744 17.944C38.8744 18.616 38.8904 19.096 38.9224 19.384C38.9544 19.672 38.9864 19.848 39.0184 19.912C39.0824 19.976 39.1624 20.008 39.2584 20.008C39.3224 20.008 39.5624 19.688 39.9784 19.048C40.3944 18.408 40.9864 17.768 41.7544 17.128C42.5224 16.456 43.3704 16.12 44.2984 16.12C44.8744 16.12 45.6264 16.424 46.5544 17.032C47.2264 17.48 47.5624 17.944 47.5624 18.424C47.5624 19 47.4344 19.512 47.1784 19.96C46.9224 20.408 46.6664 20.712 46.4104 20.872C46.1864 21.032 46.0264 21.112 45.9304 21.112C45.6744 21.112 45.2104 20.92 44.5384 20.536C43.8984 20.152 43.1464 19.96 42.2824 19.96C41.4184 19.96 40.6024 20.312 39.8344 21.016C39.0984 21.72 38.7304 22.36 38.7304 22.936V27.928C38.7304 29.08 38.7304 30.024 38.7304 30.76C38.7624 31.464 38.7784 31.912 38.7784 32.104C38.7784 32.264 38.7784 32.408 38.7784 32.536C38.8104 32.664 38.8264 32.808 38.8264 32.968C38.8264 33.64 39.0504 34.216 39.4984 34.696C39.9464 35.176 40.4744 35.464 41.0824 35.56C41.2744 35.592 41.5144 35.624 41.8024 35.656C42.0904 35.688 42.3144 35.72 42.4744 35.752C42.6344 35.752 42.8104 35.784 43.0024 35.848C43.1944 35.88 43.3224 35.944 43.3864 36.04C43.4824 36.136 43.5304 36.248 43.5304 36.376C43.5304 36.888 43.3384 37.144 42.9544 37.144C42.4104 37.144 41.6744 37.096 40.7464 37C39.8184 36.936 39.1944 36.904 38.8744 36.904C37.8504 36.904 36.7944 36.936 35.7064 37C34.6184 37.096 34.0104 37.144 33.8824 37.144C33.5624 37.144 33.3224 37.112 33.1624 37.048C33.0024 36.984 32.9064 36.92 32.8744 36.856C32.8424 36.792 32.8264 36.696 32.8264 36.568C32.8264 36.152 33.0344 35.88 33.4504 35.752C34.2824 35.56 34.7784 35.16 34.9384 34.552C35.1304 33.912 35.2264 32.568 35.2264 30.52C35.2264 28.44 35.2104 26.728 35.1784 25.384C35.1784 24.04 35.1784 23.192 35.1784 22.84C35.1784 22.456 35.1624 22.152 35.1304 21.928C35.1304 21.704 35.1304 21.512 35.1304 21.352C35.1304 21 35.0824 20.712 34.9864 20.488C34.8904 20.264 34.6504 20.056 34.2664 19.864C33.9144 19.672 33.4024 19.576 32.7304 19.576C32.6984 19.576 32.6184 19.576 32.4904 19.576C32.3624 19.544 32.2664 19.528 32.2024 19.528C31.5944 19.528 31.2904 19.272 31.2904 18.76ZM49.9624 18.712C49.9624 18.552 49.9944 18.424 50.0584 18.328C50.1544 18.232 50.3144 18.136 50.5384 18.04C50.7944 17.912 51.0504 17.816 51.3064 17.752C51.5624 17.656 51.9304 17.528 52.4104 17.368C52.9224 17.176 53.4024 16.984 53.8504 16.792C54.2024 16.632 54.5224 16.488 54.8104 16.36C55.1304 16.232 55.3384 16.152 55.4344 16.12C55.5304 16.056 55.6424 16.008 55.7704 15.976C55.8984 15.944 56.0584 15.928 56.2504 15.928C56.7304 15.928 56.9704 16.232 56.9704 16.84C56.9704 17 56.9224 17.352 56.8264 17.896C56.7304 18.44 56.6824 18.856 56.6824 19.144V32.296C56.6824 33.256 56.8264 34.008 57.1144 34.552C57.4344 35.096 57.7544 35.432 58.0744 35.56C58.4264 35.688 58.8584 35.768 59.3704 35.8C59.7544 35.832 60.0104 35.864 60.1384 35.896C60.2664 35.896 60.4104 35.944 60.5704 36.04C60.7304 36.136 60.8104 36.296 60.8104 36.52C60.8104 37.064 60.5384 37.336 59.9944 37.336C59.9304 37.336 59.8184 37.32 59.6584 37.288C59.4984 37.288 59.3704 37.288 59.2744 37.288C58.5704 37.288 57.9784 37.272 57.4984 37.24C57.0184 37.208 56.4744 37.192 55.8664 37.192C55.0984 37.192 54.3784 37.208 53.7064 37.24C53.0344 37.272 52.6184 37.288 52.4584 37.288C51.1784 37.288 50.5384 37.08 50.5384 36.664C50.5384 36.216 50.7784 35.912 51.2584 35.752C51.2904 35.752 51.3544 35.736 51.4504 35.704C52.1864 35.448 52.6344 35.128 52.7944 34.744C53.0824 34.104 53.2264 31.56 53.2264 27.112V22.888C53.2264 21.96 53.1144 21.224 52.8904 20.68C52.6664 20.136 52.4584 19.8 52.2664 19.672C52.0744 19.544 51.7384 19.448 51.2584 19.384C50.8104 19.288 50.5384 19.224 50.4424 19.192C50.1224 19.064 49.9624 18.904 49.9624 18.712ZM52.6984 8.68C52.6984 8.296 52.9704 7.768 53.5144 7.096C54.0904 6.392 54.6184 6.04 55.0984 6.04C55.6104 6.04 56.1064 6.376 56.5864 7.048C57.0664 7.688 57.3064 8.264 57.3064 8.776C57.3064 9.288 57.0024 9.864 56.3944 10.504C55.7864 11.112 55.3384 11.416 55.0504 11.416C54.4104 11.416 53.8504 11.08 53.3704 10.408C52.9224 9.736 52.6984 9.16 52.6984 8.68ZM63.5126 27.64C63.5126 24.536 64.5366 21.816 66.5846 19.48C68.6646 17.144 71.5286 15.976 75.1766 15.976C76.0086 15.976 77.0966 16.216 78.4406 16.696C79.8166 17.144 80.5526 17.368 80.6486 17.368C80.8086 17.368 80.8886 16.792 80.8886 15.64C80.8886 13.208 80.9046 11.624 80.9366 10.888C80.9686 10.12 80.9846 9.64 80.9846 9.448C80.9846 8.424 80.9686 7.672 80.9366 7.192C80.9046 6.712 80.8086 6.184 80.6486 5.608C80.5206 5.032 80.2646 4.632 79.8806 4.408C79.5286 4.184 79.0486 4.072 78.4406 4.072H77.9126C77.4326 4.072 77.1446 4.056 77.0486 4.024C76.9526 3.992 76.9046 3.88 76.9046 3.688V3.64C76.9046 3.416 77.0646 3.256 77.3846 3.16C77.7046 3.032 78.3446 2.824 79.3046 2.536C80.2966 2.216 81.3046 1.816 82.3286 1.336C82.4246 1.304 82.6166 1.224 82.9046 1.096C83.1926 0.935999 83.4326 0.823998 83.6246 0.759997C83.8486 0.663999 84.0406 0.615999 84.2006 0.615999C84.5846 0.615999 84.7766 0.935999 84.7766 1.576C84.7766 1.672 84.6646 3.032 84.4406 5.656C84.2486 8.28 84.1526 10.392 84.1526 11.992C84.1526 15.288 84.1366 18.856 84.1046 22.696C84.0726 26.536 84.0566 28.808 84.0566 29.512C84.0566 31.688 84.1526 33.144 84.3446 33.88C84.5686 34.616 85.0326 35.096 85.7366 35.32C85.8326 35.352 86.1046 35.416 86.5526 35.512C87.0006 35.576 87.3206 35.672 87.5126 35.8C87.7046 35.896 87.8006 36.072 87.8006 36.328C87.8006 36.712 86.5686 37 84.1046 37.192C83.5926 37.224 83.0006 37.304 82.3286 37.432C81.6566 37.592 81.2406 37.672 81.0806 37.672C80.7286 37.672 80.5526 37.496 80.5526 37.144C80.5526 37.048 80.5206 36.808 80.4566 36.424C80.4246 36.04 80.4086 35.688 80.4086 35.368C80.4086 34.824 80.2646 34.552 79.9766 34.552C79.8806 34.552 79.6406 34.712 79.2566 35.032C78.9046 35.352 78.4886 35.72 78.0086 36.136C77.5286 36.52 76.8246 36.872 75.8966 37.192C75.0006 37.512 74.0246 37.672 72.9686 37.672C69.9926 37.672 67.6726 36.696 66.0086 34.744C64.3446 32.76 63.5126 30.392 63.5126 27.64ZM66.9686 25.384C66.9686 27.816 67.7046 30.056 69.1766 32.104C70.6806 34.152 72.6006 35.176 74.9366 35.176C76.3766 35.176 77.6886 34.808 78.8726 34.072C80.0566 33.336 80.6486 32.44 80.6486 31.384L80.6966 23.176C80.6966 21.224 80.2486 19.992 79.3526 19.48C76.9846 18.072 75.0806 17.368 73.6406 17.368C71.5606 17.368 69.9286 18.136 68.7446 19.672C67.5606 21.176 66.9686 23.08 66.9686 25.384ZM90.1845 41.656C90.1845 40.792 90.4725 40.056 91.0485 39.448C91.6245 38.872 92.2005 38.44 92.7765 38.152C93.3525 37.864 93.6405 37.672 93.6405 37.576C93.6405 37.512 93.5605 37.416 93.4005 37.288C93.2405 37.16 93.0485 37.016 92.8245 36.856C92.6325 36.696 92.4565 36.424 92.2965 36.04C92.1365 35.656 92.0565 35.224 92.0565 34.744C92.0565 33.784 92.2645 32.952 92.6805 32.248C93.0965 31.544 93.5125 31.016 93.9285 30.664C94.3445 30.312 94.5525 30.088 94.5525 29.992C94.5525 29.864 94.3765 29.656 94.0245 29.368C93.7045 29.08 93.3365 28.76 92.9205 28.408C92.5045 28.024 92.1205 27.416 91.7685 26.584C91.4485 25.72 91.2885 24.712 91.2885 23.56C91.2885 22.824 91.4005 22.088 91.6245 21.352C91.8805 20.584 92.2805 19.8 92.8245 19C93.4005 18.168 94.2645 17.496 95.4165 16.984C96.6005 16.472 97.9925 16.216 99.5925 16.216C100.841 16.216 101.913 16.376 102.809 16.696C103.705 17.016 104.361 17.336 104.777 17.656C105.225 17.976 105.513 18.136 105.641 18.136C105.897 18.136 106.713 17.848 108.089 17.272C108.537 17.08 108.873 16.648 109.097 15.976C109.321 15.304 109.561 14.968 109.817 14.968C110.233 14.968 110.441 15.096 110.441 15.352C110.441 16.12 110.329 16.952 110.105 17.848C109.881 18.712 109.641 19.336 109.385 19.72C109.001 20.328 108.345 20.824 107.417 21.208C107.769 22.168 107.945 22.968 107.945 23.608C107.945 25.656 107.177 27.384 105.641 28.792C104.105 30.2 102.233 30.904 100.025 30.904C99.1925 30.904 98.3925 30.84 97.6245 30.712C96.8885 30.552 96.4565 30.472 96.3285 30.472C96.1685 30.472 95.9605 30.504 95.7045 30.568C95.4485 30.632 95.1285 30.856 94.7445 31.24C94.3605 31.624 94.1685 32.152 94.1685 32.824C94.1685 33.912 94.6645 34.6 95.6565 34.888C96.6485 35.176 98.2965 35.32 100.601 35.32H102.809C107.449 35.32 109.769 36.728 109.769 39.544C109.769 40.536 109.657 41.288 109.433 41.8C108.825 43.368 107.577 44.616 105.689 45.544C103.801 46.472 101.609 46.936 99.1125 46.936C97.6725 46.936 96.3285 46.792 95.0805 46.504C93.8325 46.248 92.6965 45.704 91.6725 44.872C90.6805 44.04 90.1845 42.968 90.1845 41.656ZM92.9685 41.368C92.9685 42.776 93.5605 43.832 94.7445 44.536C95.9285 45.272 97.3845 45.64 99.1125 45.64C101.097 45.64 102.873 45.224 104.441 44.392C106.041 43.592 106.841 42.552 106.841 41.272C106.841 40.696 106.713 40.232 106.457 39.88C106.201 39.528 105.769 39.272 105.161 39.112C104.553 38.984 104.009 38.904 103.529 38.872C103.081 38.84 102.409 38.824 101.513 38.824H101.081C100.057 38.824 98.8085 38.712 97.3365 38.488L95.1765 38.152C94.8565 38.152 94.4085 38.472 93.8325 39.112C93.2565 39.752 92.9685 40.504 92.9685 41.368ZM94.9365 23.08C94.9365 25 95.3845 26.6 96.2805 27.88C97.2085 29.16 98.3605 29.8 99.7365 29.8C101.177 29.8 102.281 29.256 103.049 28.168C103.817 27.048 104.201 25.688 104.201 24.088C104.201 22.296 103.753 20.712 102.857 19.336C101.961 17.96 100.745 17.272 99.2085 17.272C98.0245 17.272 97.0165 17.784 96.1845 18.808C95.3525 19.8 94.9365 21.224 94.9365 23.08ZM113.388 27.688C113.388 24.488 114.284 21.784 116.076 19.576C117.9 17.368 120.252 16.264 123.132 16.264C124.476 16.264 125.692 16.504 126.78 16.984C127.9 17.464 128.764 18.056 129.372 18.76C129.98 19.432 130.492 20.152 130.908 20.92C131.324 21.688 131.596 22.328 131.724 22.84C131.884 23.32 131.964 23.672 131.964 23.896C131.964 24.472 131.308 24.76 129.996 24.76H119.1H117.66C117.404 24.76 117.244 24.792 117.18 24.856C117.148 24.888 117.132 25.032 117.132 25.288C117.132 28.296 117.932 30.664 119.532 32.392C121.164 34.12 123.068 34.984 125.244 34.984C126.588 34.984 127.948 34.632 129.324 33.928C130.732 33.192 131.468 32.824 131.532 32.824C131.852 32.824 132.012 32.968 132.012 33.256C132.012 33.384 131.9 33.624 131.676 33.976C131.452 34.296 131.1 34.68 130.62 35.128C130.14 35.576 129.58 36.008 128.94 36.424C128.3 36.84 127.5 37.192 126.54 37.48C125.58 37.768 124.572 37.912 123.516 37.912C120.7 37.912 118.3 37.048 116.316 35.32C114.364 33.592 113.388 31.048 113.388 27.688ZM117.42 22.936C117.42 23.384 117.628 23.608 118.044 23.608C118.908 23.608 120.492 23.56 122.796 23.464C125.1 23.368 126.332 23.32 126.492 23.32C126.94 23.32 127.212 23.288 127.308 23.224C127.436 23.128 127.5 22.968 127.5 22.744C127.5 21.784 127.052 20.664 126.156 19.384C125.26 18.104 123.98 17.464 122.316 17.464C120.78 17.464 119.58 18.104 118.716 19.384C117.852 20.632 117.42 21.816 117.42 22.936ZM136.515 34.936V30.76C136.515 30.408 136.579 30.12 136.707 29.896C136.867 29.64 137.043 29.512 137.235 29.512C137.555 29.512 137.763 29.592 137.859 29.752C137.987 29.88 138.099 30.168 138.195 30.616C138.291 31.064 138.387 31.384 138.483 31.576C139.667 34.52 141.331 35.992 143.475 35.992C144.467 35.992 145.411 35.736 146.307 35.224C147.203 34.68 147.651 33.8 147.651 32.584C147.651 31.528 147.283 30.648 146.547 29.944C145.811 29.24 144.915 28.696 143.859 28.312C142.803 27.896 141.747 27.48 140.691 27.064C139.635 26.616 138.739 25.976 138.003 25.144C137.267 24.28 136.899 23.208 136.899 21.928C136.899 20.136 137.619 18.696 139.059 17.608C140.499 16.52 142.195 15.976 144.147 15.976C145.651 15.976 146.851 16.12 147.747 16.408C148.643 16.664 149.171 16.904 149.331 17.128C149.523 17.352 149.619 17.56 149.619 17.752C149.619 17.784 149.651 18.216 149.715 19.048C149.779 19.88 149.811 20.408 149.811 20.632C149.811 21.176 149.747 21.544 149.619 21.736C149.491 21.928 149.267 22.024 148.947 22.024C148.787 22.024 148.563 21.8 148.275 21.352C148.019 20.872 147.715 20.36 147.363 19.816C147.043 19.272 146.499 18.776 145.731 18.328C144.995 17.848 144.131 17.608 143.139 17.608C142.211 17.608 141.443 17.848 140.835 18.328C140.227 18.776 139.923 19.352 139.923 20.056C139.923 20.44 139.971 20.808 140.067 21.16C140.163 21.48 140.323 21.768 140.547 22.024C140.803 22.28 141.011 22.504 141.171 22.696C141.363 22.856 141.667 23.032 142.083 23.224C142.499 23.416 142.803 23.56 142.995 23.656C143.219 23.72 143.571 23.848 144.051 24.04C144.563 24.2 144.899 24.312 145.059 24.376C147.363 25.24 148.915 26.152 149.715 27.112C150.515 28.04 150.915 29.432 150.915 31.288C150.915 33.08 150.067 34.744 148.371 36.28C147.219 37.272 145.635 37.768 143.619 37.768C143.043 37.768 142.435 37.704 141.795 37.576C141.155 37.448 140.643 37.32 140.259 37.192C139.907 37.096 139.491 36.952 139.011 36.76C138.531 36.568 138.275 36.472 138.243 36.472C138.115 36.44 137.955 36.392 137.763 36.328C137.603 36.264 137.475 36.232 137.379 36.232C137.315 36.2 137.219 36.152 137.091 36.088C136.963 36.024 136.867 35.976 136.803 35.944C136.771 35.88 136.723 35.8 136.659 35.704C136.595 35.608 136.547 35.496 136.515 35.368C136.515 35.24 136.515 35.096 136.515 34.936Z" fill="white"/>
</g>
<defs>
<filter id="filter0_i" x="0.959961" y="0.615967" width="149.955" height="50.32" filterUnits="userSpaceOnUse" color-interpolation-filters="sRGB">
<feFlood flood-opacity="0" result="BackgroundImageFix"/>
<feBlend mode="normal" in="SourceGraphic" in2="BackgroundImageFix" result="shape"/>
<feColorMatrix in="SourceAlpha" type="matrix" values="0 0 0 0 0 0 0 0 0 0 0 0 0 0 0 0 0 0 127 0" result="hardAlpha"/>
<feOffset dy="4"/>
<feGaussianBlur stdDeviation="2"/>
<feComposite in2="hardAlpha" operator="arithmetic" k2="-1" k3="1"/>
<feColorMatrix type="matrix" values="0 0 0 0 0 0 0 0 0 0 0 0 0 0 0 0 0 0 0.25 0"/>
<feBlend mode="normal" in2="shape" result="effect1_innerShadow"/>
</filter>
</defs>
</svg>
