<svg width="143" height="36" viewBox="0 0 143 36" fill="none" xmlns="http://www.w3.org/2000/svg">
<g filter="url(#filter0_i)">
<path d="M0.96 1.64C0.96 1.064 1.392 0.775997 2.256 0.775997C2.384 0.775997 2.592 0.791998 2.88 0.823999C3.168 0.855999 3.392 0.871999 3.552 0.871999C3.872 0.871999 4.464 0.903998 5.328 0.967998C6.224 1.032 7.024 1.064 7.728 1.064C8.72 1.064 9.776 1.032 10.896 0.967998C12.016 0.903998 12.64 0.871999 12.768 0.871999C13.312 0.871999 13.584 1.032 13.584 1.352C13.584 1.8 13.392 2.104 13.008 2.264C12.624 2.392 12.192 2.488 11.712 2.552C11.264 2.584 10.816 2.936 10.368 3.608C9.952 4.248 9.712 5.224 9.648 6.536C9.584 7.784 9.504 11.272 9.408 17C9.312 22.728 9.264 25.928 9.264 26.6V28.52C9.264 30.824 9.648 32.088 10.416 32.312C11.216 32.568 11.904 32.696 12.48 32.696C14.88 32.696 16.976 32.584 18.768 32.36C20.592 32.136 21.952 31.864 22.848 31.544C23.776 31.192 24.544 30.824 25.152 30.44C25.76 30.024 26.144 29.656 26.304 29.336C26.496 28.984 26.672 28.696 26.832 28.472C27.024 28.248 27.216 28.136 27.408 28.136C27.792 28.136 27.984 28.408 27.984 28.952C27.984 30.328 27.296 31.72 25.92 33.128C24.544 34.536 23.344 35.24 22.32 35.24C20.016 35.24 17.408 35.16 14.496 35C11.616 34.84 9.824 34.76 9.12 34.76C8.224 34.76 7.184 34.824 6 34.952C4.848 35.08 3.888 35.144 3.12 35.144C2.192 35.144 1.728 34.952 1.728 34.568C1.728 34.344 1.808 34.168 1.968 34.04C2.16 33.88 2.336 33.8 2.496 33.8C2.976 33.8 3.44 33.64 3.888 33.32C4.464 32.872 4.88 32.056 5.136 30.872C5.392 29.656 5.52 27.336 5.52 23.912V17.96C5.52 17.096 5.536 15.752 5.568 13.928C5.632 12.104 5.664 10.68 5.664 9.656C5.664 8.792 5.632 7.336 5.568 5.288C5.536 4.36 5.136 3.64 4.368 3.128C3.6 2.616 2.704 2.344 1.68 2.312C1.36 2.312 1.152 2.264 1.056 2.168C0.992 2.04 0.96 1.864 0.96 1.64ZM31.0339 18.728C31.0339 13.352 32.6499 8.952 35.8819 5.528C39.1139 2.072 43.6899 0.343997 49.6099 0.343997C52.3619 0.343997 54.8419 0.743998 57.0499 1.544C59.2579 2.344 61.0019 3.336 62.2819 4.52C63.5619 5.672 64.6339 7 65.4979 8.504C66.3619 10.008 66.9539 11.4 67.2739 12.68C67.5939 13.928 67.7539 15.096 67.7539 16.184C67.7539 20.536 66.9059 24.216 65.2099 27.224C63.5139 30.2 61.2739 32.376 58.4899 33.752C55.7379 35.096 52.5539 35.768 48.9379 35.768C45.1299 35.768 41.8339 34.936 39.0499 33.272C36.2979 31.608 34.2659 29.512 32.9539 26.984C31.6739 24.456 31.0339 21.704 31.0339 18.728ZM35.2579 16.28C35.2579 17.56 35.4339 18.952 35.7859 20.456C36.1379 21.928 36.7139 23.464 37.5139 25.064C38.3139 26.632 39.2739 28.056 40.3939 29.336C41.5459 30.584 42.9859 31.624 44.7139 32.456C46.4739 33.256 48.3939 33.656 50.4739 33.656C51.5619 33.656 52.6979 33.496 53.8819 33.176C55.0979 32.824 56.2979 32.296 57.4819 31.592C58.6659 30.888 59.7219 30.04 60.6499 29.048C61.5779 28.024 62.3299 26.792 62.9059 25.352C63.5139 23.88 63.8179 22.296 63.8179 20.6C63.8179 14.808 62.2979 10.312 59.2579 7.112C56.2179 3.88 52.4579 2.264 47.9779 2.264C44.4579 2.264 41.4499 3.448 38.9539 5.816C36.4899 8.184 35.2579 11.672 35.2579 16.28ZM70.8038 1.592C70.8038 1.08 71.2678 0.823999 72.1958 0.823999H80.1638C80.8998 0.823999 81.7478 0.807999 82.7078 0.775997C83.6678 0.711998 84.4198 0.679998 84.9638 0.679998C87.8438 0.679998 90.3078 1.416 92.3558 2.888C94.4038 4.328 95.4278 6.28 95.4278 8.744C95.4278 10.376 95.1078 11.816 94.4678 13.064C93.8598 14.28 93.1718 15.16 92.4038 15.704C91.6678 16.248 90.9798 16.728 90.3398 17.144C89.7318 17.528 89.4278 17.784 89.4278 17.912C89.4278 18.296 90.7718 20.376 93.4598 24.152C96.1478 27.896 97.9878 30.296 98.9798 31.352C100.196 32.856 101.668 33.608 103.396 33.608C103.844 33.608 104.068 33.8 104.068 34.184C104.068 34.664 103.876 34.984 103.492 35.144C103.108 35.304 102.116 35.384 100.516 35.384C99.0118 35.384 97.6358 35.016 96.3878 34.28C94.7878 33.352 92.0838 29.768 88.2758 23.528C88.0518 23.176 87.8918 22.92 87.7958 22.76C86.2598 20.264 85.0758 19.016 84.2438 19.016H83.2358H80.3078C79.9238 19.016 79.6838 19.176 79.5878 19.496C79.5238 19.816 79.4918 20.792 79.4918 22.424C79.4918 23.96 79.4918 25.224 79.4918 26.216C79.4918 27.208 79.4918 27.848 79.4918 28.136C79.5238 28.392 79.5398 28.616 79.5398 28.808C79.5398 28.968 79.5398 29.096 79.5398 29.192C79.5398 30.504 79.8438 31.528 80.4518 32.264C81.0598 32.968 81.7318 33.384 82.4678 33.512C83.2358 33.608 83.9238 33.736 84.5318 33.896C85.1398 34.024 85.4438 34.248 85.4438 34.568C85.4438 35.08 85.1558 35.336 84.5798 35.336C84.5478 35.336 83.4438 35.272 81.2678 35.144C79.0918 35.048 77.9078 35 77.7158 35C76.7878 35 75.6838 35.032 74.4038 35.096C73.1238 35.16 72.4678 35.192 72.4358 35.192C71.7638 35.192 71.4277 34.936 71.4277 34.424C71.4277 34.072 71.6358 33.832 72.0518 33.704C72.4678 33.544 72.9318 33.432 73.4438 33.368C73.9558 33.304 74.4198 32.952 74.8358 32.312C75.2518 31.672 75.4598 30.76 75.4598 29.576C75.4598 28.744 75.4598 26.504 75.4598 22.856C75.4918 19.208 75.5078 16.408 75.5078 14.456C75.5078 12.472 75.4918 10.664 75.4598 9.032C75.4598 7.368 75.4598 6.472 75.4598 6.344C75.4598 5.16 75.2198 4.264 74.7398 3.656C74.2598 3.016 73.7158 2.664 73.1078 2.6C72.5318 2.504 72.0038 2.392 71.5238 2.264C71.0438 2.136 70.8038 1.912 70.8038 1.592ZM79.4918 9.272C79.4918 12.568 79.5078 14.616 79.5398 15.416C79.5718 16.184 79.6838 16.632 79.8758 16.76C80.3558 17.048 81.0438 17.192 81.9398 17.192H82.4198H83.8118C86.5318 17.192 88.4678 16.568 89.6198 15.32C90.8038 14.072 91.3958 12.472 91.3958 10.52C91.3958 8.536 90.6118 6.728 89.0438 5.096C87.5078 3.464 85.1718 2.648 82.0358 2.648C80.8518 2.648 80.1318 2.968 79.8758 3.608C79.6198 4.216 79.4918 5.656 79.4918 7.928V9.272ZM105.257 34.616C105.257 34.168 105.497 33.864 105.977 33.704C107.001 33.32 107.897 32.472 108.665 31.16C109.433 29.816 111.337 25.832 114.377 19.208C117.513 12.424 120.281 6.472 122.681 1.352C122.905 0.871999 123.097 0.567999 123.257 0.439999C123.449 0.311998 123.737 0.247998 124.121 0.247998C124.409 0.247998 124.601 0.311998 124.697 0.439999C124.793 0.567999 125.001 1.096 125.321 2.024C125.513 2.568 125.673 3.032 125.801 3.416C125.961 3.8 126.201 4.424 126.521 5.288C126.841 6.152 127.193 7.048 127.577 7.976C128.601 10.504 130.361 14.696 132.857 20.552C135.385 26.376 136.761 29.528 136.985 30.008C137.529 31.096 138.137 31.928 138.809 32.504C139.481 33.048 140.057 33.352 140.537 33.416C141.049 33.448 141.465 33.528 141.785 33.656C142.137 33.752 142.313 33.992 142.313 34.376C142.313 34.856 141.881 35.096 141.017 35.096C140.665 35.096 139.977 35.048 138.953 34.952C137.929 34.856 137.177 34.808 136.697 34.808C136.089 34.808 135.305 34.84 134.345 34.904C133.385 34.968 132.681 35 132.233 35C131.241 35 130.601 34.968 130.313 34.904C130.057 34.808 129.929 34.616 129.929 34.328C129.929 34.104 130.057 33.928 130.313 33.8C130.569 33.64 130.841 33.544 131.129 33.512C131.417 33.448 131.689 33.304 131.945 33.08C132.201 32.824 132.329 32.488 132.329 32.072C132.329 31.368 131.929 29.928 131.129 27.752C130.329 25.576 129.657 23.976 129.113 22.952C128.825 22.408 128.169 22.136 127.145 22.136C126.985 22.136 126.281 22.152 125.033 22.184C123.785 22.216 122.553 22.232 121.337 22.232H118.793C117.353 22.232 116.441 22.312 116.057 22.472C115.705 22.632 115.385 23.016 115.097 23.624C114.905 24.04 114.585 24.712 114.137 25.64C113.689 26.536 113.385 27.16 113.225 27.512C113.065 27.864 112.857 28.328 112.601 28.904C112.377 29.448 112.217 29.896 112.121 30.248C112.057 30.568 112.025 30.856 112.025 31.112C112.025 31.848 112.201 32.408 112.553 32.792C112.937 33.176 113.353 33.4 113.801 33.464C114.249 33.496 114.649 33.576 115.001 33.704C115.385 33.832 115.577 34.056 115.577 34.376C115.577 34.6 115.529 34.776 115.433 34.904C115.337 35 115.113 35.048 114.761 35.048C114.569 35.048 114.009 35.032 113.081 35C112.185 35 111.417 35 110.777 35C110.073 35 109.273 35.032 108.377 35.096C107.513 35.16 106.937 35.192 106.649 35.192C105.721 35.192 105.257 35 105.257 34.616ZM117.305 18.776C117.305 19.192 117.449 19.448 117.737 19.544C118.025 19.64 118.697 19.688 119.753 19.688H121.241L125.801 19.64C127.049 19.64 127.673 19.384 127.673 18.872C127.673 18.456 126.889 16.488 125.321 12.968C123.753 9.416 122.761 7.64 122.345 7.64C122.057 7.64 121.145 9.416 119.609 12.968C118.073 16.488 117.305 18.424 117.305 18.776Z" fill="white"/>
</g>
<defs>
<filter id="filter0_i" x="0.959961" y="0.248047" width="141.353" height="39.52" filterUnits="userSpaceOnUse" color-interpolation-filters="sRGB">
<feFlood flood-opacity="0" result="BackgroundImageFix"/>
<feBlend mode="normal" in="SourceGraphic" in2="BackgroundImageFix" result="shape"/>
<feColorMatrix in="SourceAlpha" type="matrix" values="0 0 0 0 0 0 0 0 0 0 0 0 0 0 0 0 0 0 127 0" result="hardAlpha"/>
<feOffset dy="4"/>
<feGaussianBlur stdDeviation="2"/>
<feComposite in2="hardAlpha" operator="arithmetic" k2="-1" k3="1"/>
<feColorMatrix type="matrix" values="0 0 0 0 0 0 0 0 0 0 0 0 0 0 0 0 0 0 0.25 0"/>
<feBlend mode="normal" in2="shape" result="effect1_innerShadow"/>
</filter>
</defs>
</svg>
